/* XPM */
static char *acacia_log_top[] = {
/* columns rows colors chars-per-pixel */
"32 32 11 1 ",
"  c #7C1E31",
". c #512B26",
"X c #4C4734",
"o c #71344A",
"O c #635E5C",
"+ c #7A786D",
"@ c #8B384D",
"# c #A04743",
"$ c #BD4252",
"% c #958F8D",
"& c #AAABBA",
"OX%%%O%%X&&%+X++++O++X%%O++O%%%O",
"++X%%++%&&&XXX..........O%&&+%OO",
"+++++%%%OXXXXo@##$$$#oX...O&&X%%",
"O+++%%O.Xo@##@o      @#@o...X+%%",
"OX++O...$$#@o   @@@@   @#@o.O%+O",
"%++X..@$$@o@#####$$$$##@o##..XXO",
"%%+..@$$o@#$#@        @##o#@..%+",
"%%O.@#$o#$$    @#$$#@  @#@@#o.%+",
"O+..##o#$$  @##    @$$$o##o#@XO+",
"OX.@#@@$$  ##@  ###@o$$#o#o@#oXO",
"+O.#@o##  ##o@@##$$$#o$$@@@@#@XO",
"%..#@@#@o##o#@@oooo@##o$#o#o@@X%",
"%.o#o##@@#o##o@#@@@@o#@@#o @@#X%",
"O.@#o##o#@@#@@oooo@@@@@o#@  o$XX",
"O.#@@#@o# o@o#o@o@@o#o#o#@   $XO",
"+X#@o#@@  @o@o$$#o#o#o#o$#   $.+",
"+X#@@$ # o@o#o$$$o@@#o#o$# @ $.+",
"%X#@@$ #o@@@#@@$$@o#@@#o$@o@o#.&",
"%X#@@#o#@@@o##ooo@@#o##o$@ @@#.&",
"+X@@o#o##o@#o@$$#@@o@#@@#  o#@.O",
"+X@#o@@@#@@##oooo@@##@o#@ @o#o.+",
"+Xo#oo@o#@  oo@@##@@o@#@  @@$..+",
"%OX#@o#@o###@oooooo@##@  # $$..%",
"&&X@#o #@oo@@#$$$$##@   # $$o.O%",
"&&Xo##  ##@@oooooo    @o $$#..+%",
"OXXX@##  #$$$$$$$$$##@ @$$#o.&+O",
"+++..@##ooo@#$$$$#@@o@###@o.&&+O",
"++OO..@##@ooo@@##@@@@##@o.X&&%+%",
"+X++O..o@#$$$$$$$$##@oXXXO+%%%+%",
"XX%%+OO....o@#$$$@oXXXO&&&+++OOO",
"O%%%O+++X+OO..XXXXXO+%O+++O+%%OO",
"O%%OO++OO++O&&X&&++%%%O%%OOO%%OO"
};
