/* XPM */
static char *acacia_log[] = {
/* columns rows colors chars-per-pixel */
"32 32 6 1 ",
"  c none",
". c #635E5C",
"X c #7A786D",
"o c #958F8D",
"O c #AAABBA",
"+ c #CCCCB3",
".XooooX.oo.  ++..ooXXXoo..OO.oo.",
".XooXoo.oo.  ++  ooXXXoo..++.oo.",
"..ooXoo.oo.  oo  ooXXooX. ++XXXX",
"X XooOO.oo.  OO  oooXooX. oo.XXo",
"  XooOO.ooX  OO..XOOXOOXX  ..XXO",
"X.ooXOO.XoX  oo..XOOXOOXX XOOX.O",
"o.ooXOOXXOO..oX XXo++OOoo XOOo.O",
"oXooXOOXXOOX.XX XXX+++Xoo.XOOo.o",
"OXoXX++XXoOO.   ooXO++XOO.OOooXX",
"oooXX++oXXOOX. .oo.o++.oo.OOXooX",
".ooXo++OX.oooX XOO.XOO.OOXooXooX",
" OO.oOOOo.Xoo..XOO.XOO.OOXXoXoo.",
" OO.OOOOO..oO..ooo.Xoo.Xoo.oXOO.",
"  ..OOoOO..XOX.ooX.XoX.Xoo.XXOO.",
"XooooXX++X.XOo.oo..ooX  oo XXOo.",
"XooooXX++X.XOO.OO..oo.  .  .XOO.",
"XooOOX.OOo..OO.OOX.OO.  XoX.XOO.",
"XooOOX.oOO  . .OOo.OO  .XoX.ooX.",
"Xoo++X XOO  ++.oOO.OO XX.OO.OOo.",
"XOO++X Xoo..oo.oOO.++.XXXOOX++X.",
".OOOoo .oo..oo.o++.++  .oOOX++X.",
".OOooo  .X.XoX.OOo.++ XXoOOXOOXO",
".++oOO. oo.ooX.OOo....XoooOO++XO",
".++XOO. oo.OO..ooo.++  ooX++++Xo",
".OOXoo. XX.OO..ooX.++  ooX++++XO",
".++Xoo. OO.Oo..XOO.OO..ooX++OOXO",
"XOO.oo. OO.ooX..OO.OO..oo.++OOoo",
"X++.oo..oo.Xoo..OO.OO.Xoo.OOoOo.",
"OOO.oo..oo  oo..ooXoo.Xoo.OOXOO.",
"OOOXoo..OO  ooX.XoXoo.ooX.ooXOO.",
"XOoXoo. OO..XoX.XOOoX.ooX.oo.OOX",
".XoXooX .   Xoo..OOXX.oo..oo.OOX"
};
