/* XPM */
static char *acacia_planks[] = {
/* columns rows colors chars-per-pixel */
"32 32 26 1 ",
"  c #562F2A",
". c #582F2A",
"X c #58302A",
"o c #58302B",
"O c #78394F",
"+ c #783950",
"@ c #793950",
"# c #793A50",
"$ c #822137",
"% c #832137",
"& c #832237",
"* c #973147",
"= c #924549",
"- c #92454B",
"; c #94454B",
": c #94464B",
"> c #A64D48",
", c #A74D48",
"< c #A74E48",
"1 c #A74E49",
"2 c #A74D60",
"3 c #B8476E",
"4 c #C24758",
"5 c #C24759",
"6 c #C34759",
"7 c #C34859",
/* pixels */
"677$633311>22226*776#7751 +1761o",
"223%42>11>11>227*227o#>113.#331*",
"212&622212222337*211&o#1114o#3>*",
"2*3  .oooo  ooooo211&: #1117o+:*",
">*3&73177,=:1>35*>1:$6,.#3117 #:",
":&3%5:**::=;::16*;1=&7>, #4,:3oO",
"=&1%731=:;-::236*;;=#1111o#7:*:.",
"1%>ooo o o o.oooo;*:o#>>11 #6*%#",
":*1%732227711137*1*>%o#31><o#7%#",
"1*:&6,>>;1;1;;14*1*3$1o#3>1:o#=#",
",*:+43333;>;1;37*2*7&=3o#61*:.#+",
">;>oo o.oooo oooo2;7&:=7o#6**1o+",
"3;>#731<;;<13334*223#>117o#6*&*o",
"3:1$51-*&$$*;116*333o#>115o+7%%#",
"576%331::=;,1135*574# @31;3 #==%",
"@ ooo **** +****o**#+o #****o#=%",
"+677o1*76+o576*+775*73222>1>>337",
"O222**33+o3116#o323*6222>13,3>37",
"@222%1>#X7>11#o*122*633222,31337",
"o3:2*>#o51>1+o-*:,2oX oooooooooo",
"+511*+o3-13# 3*#;>2*42222221:>37",
"#5:1+o1*:3+o3;*+:1>*611>=*$$*:15",
"#5*1o:$*1# 3>=,#:11*733222:::<17",
"o3*1&&%>+.><11# :1=oooooX ooooo ",
"+1::%&*#o>:>>#.**::*3222221,1337",
"#11;&:#o31:1#o5***;*7>1111222227",
"#13:&#o3111+ 53#*%1*722222222226",
"o31:#o:113#o313#*%1ooooo oo oooo",
"#232o:>13#o5=11+1*1*7332222,,>36",
"#322%::6#o41:>+ 311*731<:***::13",
"+776&:3#o3&1=+oo655*633321**:1>6",
"o**#$1#o$%$$# oo$##$o o oooooo  "
};
