/* XPM */
static char *ancient_debris_side[] = {
/* columns rows colors chars-per-pixel */
"32 32 10 1 ",
"  c #56184E",
". c #7C1742",
"X c #562D7F",
"o c #6C246E",
"O c #BD1932",
"+ c #96222A",
"@ c #DA0733",
"# c #87195D",
"$ c #FF3A59",
"% c #A226BA",
/* pixels */
"@$$O@$$OO@$$$OO@$$OO@@$$OO$$$@OO",
"@@@.@@@+.@@@@..@@@.oOO@@.o@@@@+.",
"@@@+@@@+.O@@@..@@@+oO@@@+o@@@@+.",
"O@@+O@@+.@@@O..O@@+oOO@@+o+O@@+.",
"O@@+O@@+.@@@O+.OOO+.+OOO+o+O@@+.",
"O@@+OOO+.O@@%+.@@@+.+OOO+o+OOO++",
"O@@.OOO+.O@OO+.@@@+.+OOO+.+OO+++",
".OO.++++o+O%%+.OOO+X.OOO+..OO+++",
"oOOo+++.oOOOO+.OOO+X.OOO+.oOO+++",
"o++oo+..oOO%%+.OOO+X.++++ooOO+++",
"o++oo...oOOOO+oOOO+X.+..+oo+++++",
"o++o@@@.oOO%%+o+%%+X.#.oooo++++.",
"X++.O@@+.OO%%+o+%%.X.#@$$+o++++.",
"X++#O@@+.OO%%.o+%%+XX#@@@+o.+++.",
"X..#O@O+.OO%%.X+%%+XX#O@@+X.+++.",
"X..#OOO+.OO+%.X.%%+XX#OOO+X..++.",
"...#OOO+.OO+%...%%+XX.OOO+XXXo..",
"X..#+OO#.OO+%+..+++X..OO++X++o.X",
"XXX.+OO#.OO+%...%%+XX.OO+O@@+o.X",
"XOO.XOOXXOO++.oo+++...OO+OOO+o.X",
"XOO.X++XX%%+++..##.XX.OOOOOO+o.X",
"XOO+X++XX.%++.XX##..O..O+OOO+o.X",
"XOO+X++XX.+++..X##X@@++++OOO+XoX",
"XOO+X+.XX.+#+..X.#XOOO+++OOO+Xo.",
"XOO+X..XX%%##..XX.XOOOX++OOO+ o.",
"XOO#X..XX%%### X.XXOOOX..OO+# o#",
"XOO#XX.X %%### X++ OOOX..OO+# o#",
".OO# XXX .%### o++ OOOX.X+++# o#",
".O+# X.X X#### ... +OO .X++##Xo#",
".+## ..X  ###. ....+++ . .###Xo#",
" .##...XX .##.o...X#++   X###Xo.",
"   .....X .. Xo....##    X###..."
};
