/* XPM */
static char * e_xpm[] = {
"64 64 296 2",
"  	c None",
". 	c #2C2C2C",
"+ 	c #A86840",
"@ 	c #885830",
"# 	c #80502C",
"$ 	c #744C28",
"% 	c #282828",
"& 	c #905C34",
"* 	c #5C4020",
"= 	c #202020",
"- 	c #6C4824",
"; 	c #543C1C",
"> 	c #BC7848",
", 	c #28200C",
"' 	c #382C14",
") 	c #403018",
"! 	c #483818",
"~ 	c #1C1C1C",
"{ 	c #272727",
"] 	c #262626",
"^ 	c #580000",
"/ 	c #700000",
"( 	c #7C0000",
"_ 	c #980000",
": 	c #970000",
"< 	c #7A0000",
"[ 	c #6D0000",
"} 	c #690000",
"| 	c #4F0000",
"1 	c #222222",
"2 	c #232323",
"3 	c #440000",
"4 	c #570000",
"5 	c #610000",
"6 	c #770000",
"7 	c #790000",
"8 	c #650000",
"9 	c #5E0000",
"0 	c #242424",
"a 	c #880000",
"b 	c #B00000",
"c 	c #850000",
"d 	c #630000",
"e 	c #640000",
"f 	c #620000",
"g 	c #2F0000",
"h 	c #0E0E0E",
"i 	c #121212",
"j 	c #0F0F0F",
"k 	c #240000",
"l 	c #3A0000",
"m 	c #390000",
"n 	c #340000",
"o 	c #4D0000",
"p 	c #410000",
"q 	c #420000",
"r 	c #400000",
"s 	c #3F0000",
"t 	c #4A0000",
"u 	c #290000",
"v 	c #171717",
"w 	c #870000",
"x 	c #6E0000",
"y 	c #680000",
"z 	c #550000",
"A 	c #2B0000",
"B 	c #0F0000",
"C 	c #020202",
"D 	c #060000",
"E 	c #110000",
"F 	c #0B0000",
"G 	c #090000",
"H 	c #0E0000",
"I 	c #150000",
"J 	c #120000",
"K 	c #010101",
"L 	c #740000",
"M 	c #530000",
"N 	c #3E0000",
"O 	c #210000",
"P 	c #010000",
"Q 	c #000000",
"R 	c #020000",
"S 	c #860000",
"T 	c #7B0000",
"U 	c #5C0000",
"V 	c #3D0000",
"W 	c #140000",
"X 	c #830000",
"Y 	c #490000",
"Z 	c #1A0000",
"` 	c #050000",
" .	c #100000",
"..	c #0D0000",
"+.	c #7E0000",
"@.	c #5F0000",
"#.	c #330000",
"$.	c #080000",
"%.	c #040404",
"&.	c #090909",
"*.	c #200000",
"=.	c #300000",
"-.	c #1E0000",
";.	c #AE0000",
">.	c #9D0000",
",.	c #6C0000",
"'.	c #030000",
").	c #1B1B1B",
"!.	c #6A0000",
"~.	c #8A0000",
"{.	c #600000",
"].	c #470000",
"^.	c #0A0000",
"/.	c #350000",
"(.	c #1F0000",
"_.	c #050505",
":.	c #3C0000",
"<.	c #310000",
"[.	c #180000",
"}.	c #070707",
"|.	c #111111",
"1.	c #151515",
"2.	c #080808",
"3.	c #161616",
"4.	c #252525",
"5.	c #1A1A1A",
"6.	c #141414",
"7.	c #131313",
"8.	c #1E1E1E",
"9.	c #0D0D0D",
"0.	c #2B2B2B",
"a.	c #1C0000",
"b.	c #560000",
"c.	c #840000",
"d.	c #950000",
"e.	c #C80000",
"f.	c #4C0000",
"g.	c #C00000",
"h.	c #540000",
"i.	c #A90000",
"j.	c #260000",
"k.	c #920000",
"l.	c #2E0000",
"m.	c #6B0000",
"n.	c #820000",
"o.	c #0C0000",
"p.	c #780000",
"q.	c #2A2A2A",
"r.	c #940000",
"s.	c #960000",
"t.	c #250000",
"u.	c #510000",
"v.	c #670000",
"w.	c #590000",
"x.	c #720000",
"y.	c #A30000",
"z.	c #AD0000",
"A.	c #AF0000",
"B.	c #3B0000",
"C.	c #1D0000",
"D.	c #230000",
"E.	c #430000",
"F.	c #910000",
"G.	c #B80000",
"H.	c #C10000",
"I.	c #170000",
"J.	c #040000",
"K.	c #070000",
"L.	c #1B0000",
"M.	c #370000",
"N.	c #060606",
"O.	c #030303",
"P.	c #191919",
"Q.	c #1D1D1D",
"R.	c #0C0C0C",
"S.	c #0B0B0B",
"T.	c #500000",
"U.	c #460000",
"V.	c #2D0000",
"W.	c #160000",
"X.	c #7D0000",
"Y.	c #6F0000",
"Z.	c #760000",
"`.	c #8E0000",
" +	c #810000",
".+	c #292929",
"++	c #480000",
"@+	c #8F0000",
"#+	c #280000",
"$+	c #710000",
"%+	c #7F0000",
"&+	c #270000",
"*+	c #2C0000",
"=+	c #5B0000",
"-+	c #5A0000",
";+	c #9F0000",
">+	c #220000",
",+	c #2A0000",
"'+	c #730000",
")+	c #0A0A0A",
"!+	c #101010",
"~+	c #9C603B",
"{+	c #6C4126",
"]+	c #231207",
"^+	c #0B0401",
"/+	c #3B2510",
"(+	c #1A0E04",
"_+	c #110702",
":+	c #0D0502",
"<+	c #0C0501",
"[+	c #0E0502",
"}+	c #080301",
"|+	c #030100",
"1+	c #020100",
"2+	c #6D4725",
"3+	c #5A391D",
"4+	c #1A0C04",
"5+	c #120703",
"6+	c #2F1F0D",
"7+	c #3C2610",
"8+	c #52301B",
"9+	c #3E2512",
"0+	c #442715",
"a+	c #2F1C0B",
"b+	c #281609",
"c+	c #1D0F05",
"d+	c #150903",
"e+	c #180B04",
"f+	c #170B04",
"g+	c #140803",
"h+	c #0F0602",
"i+	c #0E0602",
"j+	c #060301",
"k+	c #D08050",
"l+	c #784B29",
"m+	c #1E0F05",
"n+	c #130803",
"o+	c #31200D",
"p+	c #5C3D1D",
"q+	c #684022",
"r+	c #714727",
"s+	c #674122",
"t+	c #613D20",
"u+	c #57371C",
"v+	c #51321A",
"w+	c #472B16",
"x+	c #412713",
"y+	c #54331C",
"z+	c #492A17",
"A+	c #52321B",
"B+	c #3D2511",
"C+	c #392310",
"D+	c #251708",
"E+	c #7F522C",
"F+	c #533219",
"G+	c #221107",
"H+	c #32210E",
"I+	c #694623",
"J+	c #6F4926",
"K+	c #8A5832",
"L+	c #895831",
"M+	c #82522E",
"N+	c #754B28",
"O+	c #764B29",
"P+	c #6D4525",
"Q+	c #845131",
"R+	c #845130",
"S+	c #6A4424",
"T+	c #643D20",
"U+	c #473017",
"V+	c #56361B",
"W+	c #190C04",
"X+	c #34220F",
"Y+	c #7F4F2C",
"Z+	c #7D4E2B",
"`+	c #7C4D2A",
" @	c #7B4D2A",
".@	c #A1643D",
"+@	c #82542E",
"@@	c #674522",
"#@	c #7B4C2A",
"$@	c #583D1E",
"%@	c #9B603A",
"&@	c #59371D",
"*@	c #140903",
"=@	c #35230F",
"-@	c #9B5F3A",
";@	c #673E24",
">@	c #160A03",
",@	c #1B0C05",
"'@	c #36240F",
")@	c #332812",
"!@	c #1F1708",
"~@	c #040201",
"{@	c #080401",
"]@	c #31210D",
". . . . . . . . . . . . . . . . . . . . . . . . . . . . . . . . . . . . . . . . . . . . . . . . . . . . . . . . . . . . . . . . ",
"+ + + + + + + + + + @ # # $ % . . $ # # @ + + + + + + + + + + + + + + + + + + + + + @ # # $ % . . $ # # @ + + + + + + + + + + + ",
"@ & & @ # @ & & & @ + + & * = . . - # @ # & & & + & @ & & @ & @ + + & # @ # & $ $ # # # & * = . . - & & & & # ; * # $ # # @ & @ ",
"+ + @ & @ # @ + + + + & + * = . . - - $ & & & + + & @ @ # @ @ & + & + @ & & & @ @ & @ # @ * = . . - + + & # # * * # $ @ # # + + ",
"+ + # # @ @ & & & + & & & * = . . - # & @ & & + & & @ & @ @ & @ & + & & @ @ & > @ & # @ # * = . . - & & + & @ @ $ * @ & & & + + ",
"& + @ & & @ @ + + + + + $ * = . . - & # & & & & & & @ # # @ # @ & + & + > + + & @ @ # # $ * = . . - @ & + # # & & # # @ & & + > ",
"& + & & @ & & & & + & + & * = . . - + + & & @ @ # & & & @ # $ @ # # & & + + & & & # $ * $ * = . . - & & & + + & & + & + + & + & ",
"& @ & @ & & + + + & & & & * = . . - + & + @ # @ @ # & # @ @ - @ @ # @ & + & & @ # @ # * $ * = . . - # & @ & & & + > + & & + + + ",
", , , , , ' ' ' ' ) ! ; ; ; = . . ; ; ; ! ) ' ' ' , , , , , , , , , , , , ' ' ' ' ) ! ; ; ; = . . ; ; ; ! ) ' ' ' , , , , , , , ",
"~ ~ ~ ~ ~ ~ ~ ~ ~ ~ ~ ~ ~ ~ ~ . . ~ ~ ~ ~ ~ ~ ~ ~ ~ ~ ~ ~ ~ ~ ~ ~ ~ ~ ~ ~ ~ ~ ~ ~ ~ ~ ~ ~ ~ ~ . . ~ ~ ~ ~ ~ ~ ~ ~ ~ ~ ~ ~ ~ ~ ~ ",
"% % % % % % % % % % % % % % % . . % % % % % % % % % % % % % { { ] ] ] ] ] ] ] ] ] ] ] ] ] ] ] ] ] ] ] ] ] ] ] ] ] ] ] { { % % % ",
". ^ / / ( _ _ _ _ _ _ _ _ _ _ _ _ _ _ _ _ _ _ _ _ : < [ } | 1 2 1 3 4 4 5 6 6 6 6 6 6 6 6 6 6 6 6 6 6 6 6 6 6 6 6 7 8 9 5 | 0 % ",
". ^ ( a _ b a a a a ^ ^ a ( a ( _ _ ( a a ( a a c } d e f g h i j k l m n n n m m m m n n n n m o o m m m o m p q 3 r s t u j v ",
". ^ a a _ a a ( ^ a a ( / / a a _ a ( a ( a w 6 x y z s A B C C C D E F G G H F H F E E E H E H E E E H I E E I I B J I I D K C ",
". ^ a a a ( ( ( ^ ( ( ( a a a a _ a _ ( / / 6 L M N O J G P Q Q Q Q P P P Q Q P P P P P P P P P P P R P P P P P P P P Q Q Q Q Q ",
". ^ ( a a ( ( / ( a a _ _ ( _ a a a _ _ ( S T U V W D P Q Q Q Q Q Q P Q Q Q Q Q P P P P P P P P P P P P P P P P P Q Q Q Q Q Q Q ",
". ^ / ( a a ( a _ a _ ( _ _ a a ( a a _ ( X < Y Z P Q Q Q Q Q Q K ` F G D F H H H H H I E I E E I E E E F F E  ...G R Q Q Q Q Q ",
". ^ a a ( a / a a _ b _ _ _ _ ( a ( a a a +.@.#.$.Q Q P R P K %.&.*.n n n n n m p p m m p o o o p p m p m m n t =.-.D Q Q Q Q Q ",
". ^ a a / a _ a _ a _ a _ a a _ _ ( ( a ;.>.,.u '.Q Q R G D %.i ).q 4 3 5 3 l !.!.!.6 !.!.~.6 6 6 !.!.4 !.6 5 9 {.].A ^.'.P Q K ",
". r r r r r r r r r r r r r r r r r r r s /.(.` Q Q Q Q P '._.v 0 :.V V V V V V V V V V V V V V V V V V V V V V m <.k [.J E }.|.",
". ~ ~ ~ ~ ~ ~ ~ ~ ~ ~ ~ ~ ~ ~ ~ ~ ~ ~ ~ ).1.2.K Q Q Q Q Q Q C 3.4.).~ ~ ~ ~ ~ ~ ~ ~ ~ ~ ~ ~ ~ ~ ~ ~ ~ ~ ~ ~ ~ ~ ).5.v 6.7.i 6.0 ",
". % % % % % % % % % % % % % % % % % % % ] 8.9.K Q Q Q Q Q Q C 7.0 { % % % % % % % % % % % % % % % % % % % % % % % % { ] 4.] ] 0.",
"_ _ _ _ _ _ _ _ _ _ ( / / ^ % . . ^ / / 6 6 q  .P Q Q Q Q P a.b.c.d._ _ _ _ _ _ _ _ ( / / ^ % . . ^ / / ( _ _ _ _ _ _ _ _ _ _ _ ",
"a _ _ b _ b _ b e.e.b b e.f.= . . ^ _ b g.~.o  .P Q Q Q Q R k h.< w ( _ / f./ r ^ ( a _ a f.= . . ^ a / a _ a a / / / ( a _ a _ ",
"b b _ _ b b e.b b e.e.b b f.= . . ^ _ _ i.~.p B Q Q Q Q Q R j.h.} a ( ( ( ^ / ^ r / / _ a f.= . . ^ _ a ( a _ ( a ( a ( a _ _ b ",
"_ _ b _ b _ b e.e.b e._ a f.= . . ^ _ _ k.6 p B Q Q Q Q Q ` l.s M / / a a ( / / ^ ^ _ ( _ f.= . . ^ _ ( ( ( ( ( ( a a a a _ _ b ",
"b b _ _ _ b b b b b e.b a f.= . . ^ _ ( k.~.f.B Q Q Q Q Q D (.z m./ / / a / ( ( a ^ ( a a f.= . . ^ ( ( / a ( _ a _ a a _ _ _ _ ",
"_ b a _ _ a a _ b _ b _ a f.= . . ^ _ _ n.6 p B Q Q Q Q Q o.l.4 y p.m.6 6 n.6 m.m.6 6 n.n.Y 8.q.q.h.6 X r.s.w a _ b b _ b _ _ b ",
"a b _ ( / a a _ _ _ _ _ a f.= . . ^ a a n.6 p o.Q Q Q Q Q F t.u.v./ w.5 5 6 6 !.!.!.5 4 !.l v = = 3 m.T x.7 y.k.r.z.A.a _ _ _ a ",
"_ a a _ ( a a ( ( a a a _ f.= . . ^ _ _ k.5 m B P Q Q Q Q o.#.q p s N B.l m m n n m m n m C.2.h h D.E.h.{.x F.p._ G.H.: b b b _ ",
"r r r r r r r r r r r r r r = . . r r r V =.I.'.Q Q Q Q Q J.J W H K.J.'.'.'.'.'.'.'.'.'.'.'.K K K '.'.J.D o.W L.D.l.M.V r r r r ",
"~ ~ ~ ~ ~ ~ ~ ~ ~ ~ ~ ~ ~ ~ ~ . . ~ ~ ~ 5.6.N.K Q Q Q Q Q K O.C K Q Q Q Q Q Q Q Q Q Q Q Q Q Q Q Q Q Q Q Q Q K K O.&.7.P.).~ ~ ~ ",
"% % % % % % % % % % % % % % % . . % % % ] Q.R.K Q Q Q Q Q C }.O.K Q Q Q Q Q Q Q Q Q Q Q Q Q Q Q Q Q Q Q Q Q Q Q K }.v 1 { % % % ",
". ^ / / ( _ _ _ _ _ _ _ _ _ _ _ _ _ _ _ k.6 p H Q Q Q Q P F S.9.}.....^.o.E E E E E E E E E E E E  . ...$.'.P R G g T.d [ ^ % . ",
". ^ / / ^ ( a _ a _ _ _ a a _ a _ b _ b k.6 f.H Q Q Q Q R F 9.P.v A U.q p p o p o o p p o m m p p f.Y E.V.t.I W.u 3 U X.< f.= . ",
". ^ / a / ^ a a _ a a a / ( ( a _ b b _ k.~.f.J Q Q Q Q R B |.2 4.].7 5 6 6 ~.~.6 ~.~.6 6 6 6 5 6 6 a [ 4 Y t E.| Y.Z.X a f.= . ",
". ^ a a a ^ ( a a a _ _ / ^ / a a a _ _ k.!.m ..Q Q Q Q R E 7.{ 0.z X i.i.g.i.g.g.k.i.k.n.k.n.n.6 k.F.`.7  +T ( } ( 6 T ( f.= . ",
". ^ a ( / / f.^ a a a a _ / ( / a _ _ _ n.6 s o.Q Q Q Q '.W 6..+. ^ a b _ b b _ _ b b a ( _ _ a ^ / a / ;.c.X n.c.S / / / f.= . ",
". ^ ( ( ( ( / ^ ( a _ _ a a a a a a b _ i.6 M.F Q Q Q Q J.I.3..+. ^ _ a b b _ b b a a a / / a ( a / ( a a a _ a a ( ( / ^ f.= . ",
". ^ a / ^ / / f.^ a a _ _ a _ a _ a ( _ k.!.M.G Q Q Q Q D Z 3.q.. ^ _ a b b _ _ a _ a a ( ^ ( a ( / / ( / ( a a a a _ _ ( f.= . ",
". ^ ( ( / / / ^ f.^ a a _ _ b _ _ a _ _ n.6 M.K.Q Q Q Q ` L.v q.. ^ a a _ _ b _ a a a a a ^ ^ a a ( a ( a ( a a _ a a _ a f.= . ",
". r r r r r r r r r r r r r r r r r r r V =.W.R Q Q Q Q R W.v q.. r r r r r r r r r r r r r r r r r r r r r r r r r r r r r = . ",
". ~ ~ ~ ~ ~ ~ ~ ~ ~ ~ ~ ~ ~ ~ ~ ~ ~ ~ ~ 5.6.N.Q Q Q Q Q Q N.6.q.. ~ ~ ~ ~ ~ ~ ~ ~ ~ ~ ~ ~ ~ ~ ~ ~ ~ ~ ~ ~ ~ ~ ~ ~ ~ ~ ~ ~ ~ ~ . ",
". % % % % % % % % % % % % % % % % % % % ] Q.S.K Q Q Q Q K S.Q.q.. % % % % % % % % % % % % % % % % % % % % % % % % % % % % % % . ",
"_ _ _ _ _ _ _ _ _ _ ( / / ^ % . . ^ / / 6 6 N F Q Q Q Q F N 6 k._ _ _ _ _ _ _ _ _ _ ( / / ^ % . . ^ / / ( _ _ _ _ _ _ _ _ _ _ _ ",
"a ( / ( a a / ^ / / ^ ( / f.= . . ^ a a 6 {.M.F Q Q Q Q ` M.!.6 ( ( _ _ a _ b _ a ( a a a f.= . . ^ _ a _ _ b _ _ e.b b _ b e._ ",
"( ( / / / ( / / / _ ( / ( f.= . . ^ a _ n.!.M.$.Q Q Q Q ` g } n.a a a _ _ _ a ( ^ ^ / ( ( f.= . . ^ a a _ b e.b b b a b _ _ _ b ",
"_ ( ( ^ a / a a ( a _ a / f.= . . ^ _ a k.!.N ^.Q Q Q Q R C.h.n._ ( _ a _ _ _ _ a / ( ^ ( f.= . . ^ a _ a e.e.e._ b b _ _ a _ _ ",
"_ ( _ a / ( a ( a ( _ a ( f.= . . ^ _ a k.!.++G Q Q Q Q P t.r @+s.r.c S w _ _ a b _ ( ^ ( f.= . . ^ _ _ _ e.e.e.e._ _ _ _ a _ a ",
"a a a / / ( ( a a ( a a _ f.= . . ^ _ b k.!.V K.Q Q Q Q R #+u.8 $+x p./ %+X d.w a a a ( / f.= . . ^ b b b _ e.e.e._ a _ _ a a _ ",
"a _ a ( / ^ ( ( _ a a _ e.f.= . . ^ b _ n.m.<.K.Q Q Q Q '.&+*+U.s w.o =+-+< : ;+%+F.n.n.m.Y 8.q.q.h.k.k.i.k.k.i.i.g.i.n.n.n.k.n.",
"( ( _ _ _ b a a b b _ _ _ f.= . . ^ a _ k.,.m $.Q Q Q Q D #.z ++<.>+W ,+n r z x.+.'+Z.6 6 l v = = 3 6 5 !.6 !.~.>.~.~.6 !.6 !.6 ",
"r r r r r r r r r r r r r r = . . r r r N #.Z R Q Q Q Q '.Z #+a.$.R P P R J.K...J I W.I.I.I.2.h h I.I.I.I.I.I.I.I.I.I.I.I.I.I.I.",
"~ ~ ~ ~ ~ ~ ~ ~ ~ ~ ~ ~ ~ ~ ~ . . ~ ~ ~ ).v )+K Q Q Q Q K &.j 2.K Q Q Q Q Q Q Q Q K K K K K K K K K K K K K K K K K K K K K K K ",
"% % % % % % % % % % % % % % % . . % % % % 2 6.C Q Q Q Q K !+5.i %.Q Q Q Q Q Q Q Q Q Q Q Q Q Q Q Q Q Q Q Q Q Q Q Q Q Q Q Q Q Q Q ",
". $ # # @ + + + + + + + + + + + + + + + + ~+{+]+P Q Q Q ^+/+Q.~ j (+_+:+<+[+}+|+1+P P P P P P P P P P P P P P P P P P P P Q Q Q ",
". - & & + & + + > + + + > + & & + + + & # 2+3+4+P Q Q Q 5+6+P.0 Q.7+8+9+0+a+b+c+d+4+e+f+g+f+g+h+h+g+g+h+h+h+i+<+h+g+g+h+f+j+K K ",
". - & & & + @ > > k+k+> & @ & & & + & + & l+3+m+P Q Q Q n+o+~ q.{ p+q+r+s+t+u+v+w+x+y+z+A+z+z+z+B+z+C+B+B+B+C+C+C+C+B+z+A+D+2.h ",
". - @ # @ + & > > > > > & + @ # @ & @ & + E+F+G+P Q Q Q d+H+~ . 0.I+J+K+L+E+M+N+O+P+Q+r+R+R+r+r+r+S+T+S+S+S+r+S+R+r+r+R+r+U+v = ",
". - $ - @ $ > + > > k+> & @ # @ # & & & & ~+V+W+P Q Q Q n+X+~ . . - & & @ @ Y+Z+`+ @K+K+.@.@K++@+@@@K+#@K+.@K+K+.@.@K+.@.@$@8.q.",
". - @ $ @ & & + + > > k++ & @ - $ @ @ + & %@&@f+Q Q Q Q *@=@Q.. . - $ @ & @ $ # # # # # + & + & @ $ @ @ # + + + > > & @ # * = . ",
". - @ # $ @ & & + + & + & & & @ # @ @ + & -@;@>@Q Q Q Q ,@'@Q.. . - @ $ # $ @ - # @ $ # & @ + + & & # & @ & > + + & + + # * = . ",
". ; ; ; ! ) ' ' ' , , , , , , , , , , , , )@!@~@Q Q Q Q {@]@Q.. . ; ; ; ! ) ' ' ' , , , , , , , , , , , , ' ' ' ' ) ! ; ; ; = . ",
". ~ ~ ~ ~ ~ ~ ~ ~ ~ ~ ~ ~ ~ ~ ~ ~ ~ ~ ~ ~ P.9.K Q Q Q Q K 9.P.. . ~ ~ ~ ~ ~ ~ ~ ~ ~ ~ ~ ~ ~ ~ ~ ~ ~ ~ ~ ~ ~ ~ ~ ~ ~ ~ ~ ~ ~ ~ . "};
