/* XPM */
static char *light_gray_concrete[] = {
/* columns rows colors chars-per-pixel */
"32 32 5 1 ",
"  c #B0B5A3",
". c #C8B9B8",
"X c #FF0000",
"o c #D7C7B7",
"O c #DACBBC",
/* pixels */
"XoXoXoXoXoXoXoXoXoXoXoOOOOOooooX",
"XXXXXXXXXXXXXXXXXXXXXoOOOOOooooX",
"oOOoXXXX.........XXXXXXoooooXXXX",
"oOOoXXX...XXXXXXXXXXXX.oooooX...",
"XoOOoXXX...XXXXXXX...  XXXXXXX.X",
"XoOOoXXXXXXXXXXXXXX..  ......  X",
"ooooXXXXXXXXXXXX.XX..........  o",
"ooooXXXXXXXXX..  XX.XXXXXXXXXXXo",
"XX.........       .XXXXXXXXXXXXX",
"XXXXX...XXXXXXoOOOOOOooXXXXXXXXX",
"XXXXXX...XXXXXoOOOOOOooXXXXXXXXX",
"....X...XXXXXXXoOOOoooooXXXXXXX.",
"....XXXXXXXXXXXoOOOoooooXXXXXXXX",
"...  . ..X.XXXoooooooXXXXXXXXXX.",
".XXXXXXXXXXXXXoooooooXXXXXXXXXXX",
".XXXXXXXXXXXXXXXXXXXXXXXXXXXXXXX",
"XXXXXXXXXXXXXX..XXXXXXXXXXXXXOOo",
"XXXXXXXXXXXXXX.XXXXXX.XXXXXXXOOo",
"XXXXXXXXXXXX...XXXX..XXXXXXXoooX",
"XXXXXXXXXXXXXX...   .XXXXXXXoooX",
"XXoOOOoooXXXXXXXXX...XXXXXXXXXX.",
"XXoOOOoooXXXXXXXXXX...XXXX.X....",
"ooOOOooXXXX..XXXXXXXXXXXXXXXXoOO",
"ooOOOooXXXXX...XXXXXXXXXXXXXXoOO",
"ooooooooX.....XXXXXXXXXXXX...XXo",
"ooooooooXX...XXXXXXXXXXXX...XXXo",
".      ............XXXXXXX...XXX",
"XXX..   XXXXXXXXXXXXXXXXXX.XXXXX",
"XXX.XXXoooXooXXXXXXXXXXXX..XXXXX",
"XXXXXXXoooXooXXXXX.......  .XXXX",
"XXXXXXXXOOoXXXXXXXX......  .XXXX",
"XXXXXXXXOOoXXXXXX......XXXXXXXXX"
};
