/* XPM */
static char * n_xpm[] = {
"64 64 289 2",
"  	c None",
". 	c #2C2C2C",
"+ 	c #A86840",
"@ 	c #885830",
"# 	c #80502C",
"$ 	c #744C28",
"% 	c #282828",
"& 	c #905C34",
"* 	c #5C4020",
"= 	c #202020",
"- 	c #6C4824",
"; 	c #543C1C",
"> 	c #BC7848",
", 	c #28200C",
"' 	c #382C14",
") 	c #403018",
"! 	c #483818",
"~ 	c #1C1C1C",
"{ 	c #580000",
"] 	c #700000",
"^ 	c #7C0000",
"/ 	c #980000",
"( 	c #880000",
"_ 	c #B00000",
": 	c #4C0000",
"< 	c #C80000",
"[ 	c #870000",
"} 	c #960000",
"| 	c #940000",
"1 	c #490000",
"2 	c #1F1F1F",
"3 	c #2B2B2B",
"4 	c #970000",
"5 	c #C30000",
"6 	c #A40000",
"7 	c #780000",
"8 	c #720000",
"9 	c #3F0000",
"0 	c #1A1A1A",
"a 	c #272727",
"b 	c #2A2A2A",
"c 	c #570000",
"d 	c #AE0000",
"e 	c #A60000",
"f 	c #810000",
"g 	c #6F0000",
"h 	c #5D0000",
"i 	c #510000",
"j 	c #250000",
"k 	c #0F0F0F",
"l 	c #1E1E1E",
"m 	c #252525",
"n 	c #550000",
"o 	c #6E0000",
"p 	c #850000",
"q 	c #7A0000",
"r 	c #400000",
"s 	c #3B0000",
"t 	c #310000",
"u 	c #230000",
"v 	c #150000",
"w 	c #0A0000",
"x 	c #050000",
"y 	c #030303",
"z 	c #390000",
"A 	c #3D0000",
"B 	c #3A0000",
"C 	c #380000",
"D 	c #141414",
"E 	c #0B0B0B",
"F 	c #010101",
"G 	c #000000",
"H 	c #040404",
"I 	c #131313",
"J 	c #151515",
"K 	c #1B1B1B",
"L 	c #171717",
"M 	c #121212",
"N 	c #0E0E0E",
"O 	c #222222",
"P 	c #060606",
"Q 	c #191919",
"R 	c #232323",
"S 	c #0D0D0D",
"T 	c #050505",
"U 	c #242424",
"V 	c #7B0000",
"W 	c #8D0000",
"X 	c #6C0000",
"Y 	c #3C0000",
"Z 	c #0F0000",
"` 	c #010000",
" .	c #220000",
"..	c #530000",
"+.	c #430000",
"@.	c #330000",
"#.	c #120000",
"$.	c #030000",
"%.	c #820000",
"&.	c #930000",
"*.	c #5E0000",
"=.	c #1E0000",
"-.	c #040000",
";.	c #020000",
">.	c #0C0000",
",.	c #370000",
"'.	c #590000",
").	c #8E0000",
"!.	c #262626",
"~.	c #350000",
"{.	c #450000",
"].	c #5C0000",
"^.	c #7D0000",
"/.	c #360000",
"(.	c #090000",
"_.	c #080000",
":.	c #160000",
"<.	c #0B0000",
"[.	c #240000",
"}.	c #4A0000",
"|.	c #660000",
"1.	c #790000",
"2.	c #130000",
"3.	c #710000",
"4.	c #950000",
"5.	c #7F0000",
"6.	c #540000",
"7.	c #200000",
"8.	c #2D0000",
"9.	c #070000",
"0.	c #0D0000",
"a.	c #2A0000",
"b.	c #190000",
"c.	c #480000",
"d.	c #860000",
"e.	c #690000",
"f.	c #110000",
"g.	c #340000",
"h.	c #300000",
"i.	c #6A0000",
"j.	c #212121",
"k.	c #101010",
"l.	c #2B0000",
"m.	c #1B0000",
"n.	c #2C0000",
"o.	c #520000",
"p.	c #440000",
"q.	c #060000",
"r.	c #4D0000",
"s.	c #4B0000",
"t.	c #070707",
"u.	c #740000",
"v.	c #290000",
"w.	c #1C0000",
"x.	c #410000",
"y.	c #100000",
"z.	c #181818",
"A.	c #111111",
"B.	c #020202",
"C.	c #140000",
"D.	c #900000",
"E.	c #470000",
"F.	c #6D0000",
"G.	c #5F0000",
"H.	c #420000",
"I.	c #640000",
"J.	c #800000",
"K.	c #460000",
"L.	c #090909",
"M.	c #B30000",
"N.	c #0E0000",
"O.	c #210000",
"P.	c #270000",
"Q.	c #2F0000",
"R.	c #161616",
"S.	c #0A0A0A",
"T.	c #292929",
"U.	c #080808",
"V.	c #0C0C0C",
"W.	c #280000",
"X.	c #610000",
"Y.	c #8A0000",
"Z.	c #920000",
"`.	c #830000",
" +	c #750000",
".+	c #3E0000",
"++	c #760000",
"@+	c #A90000",
"#+	c #6B0000",
"$+	c #650000",
"%+	c #1D0000",
"&+	c #890000",
"*+	c #AF0000",
"=+	c #A50000",
"-+	c #C70000",
";+	c #A30000",
">+	c #2E0000",
",+	c #560000",
"'+	c #1A0000",
")+	c #320000",
"!+	c #A00000",
"~+	c #630000",
"{+	c #8C0000",
"]+	c #8B0000",
"^+	c #4F0000",
"/+	c #840000",
"(+	c #180000",
"_+	c #1F0000",
":+	c #4E0000",
"<+	c #1D1D1D",
"[+	c #260000",
"}+	c #8F0000",
"|+	c #770000",
"1+	c #670000",
"2+	c #5B0000",
"3+	c #730000",
"4+	c #910000",
"5+	c #AD0000",
"6+	c #5A0000",
"7+	c #85562F",
"8+	c #965C38",
"9+	c #704428",
"0+	c #3C2212",
"a+	c #150903",
"b+	c #120703",
"c+	c #2E190C",
"d+	c #5B361F",
"e+	c #845130",
"f+	c #A0633D",
"g+	c #A2643E",
"h+	c #8A5433",
"i+	c #623B22",
"j+	c #2C180B",
"k+	c #080301",
"l+	c #482A17",
"m+	c #835030",
"n+	c #A1643D",
"o+	c #A6673F",
"p+	c #865530",
"q+	c #845030",
"r+	c #613A22",
"s+	c #51311A",
"t+	c #442715",
"u+	c #5C3720",
"v+	c #7B4B2D",
"w+	c #AC6D41",
"x+	c #BB7848",
"y+	c #B37244",
"z+	c #965F38",
"A+	c #5C361F",
"B+	c #382110",
"C+	c #1A0C04",
"D+	c #170B03",
"E+	c #321D0D",
"F+	c #6A4025",
"G+	c #945B37",
"H+	c #8D5A33",
"I+	c #A4653E",
"J+	c #7B4F2B",
"K+	c #996139",
"L+	c #8B5733",
"M+	c #9A5D39",
"N+	c #A7663F",
"O+	c #A96C40",
"P+	c #8C5A32",
"Q+	c #BB7748",
"R+	c #9E623C",
"S+	c #6E4227",
"T+	c #5E3820",
"U+	c #603C20",
"V+	c #8C5634",
"W+	c #82542E",
"X+	c #8F5C34",
"Y+	c #A76840",
"Z+	c #B27144",
"`+	c #AD6E42",
" @	c #B87546",
".@	c #8F5B34",
"+@	c #A1633D",
"@@	c #975D39",
"#@	c #7B4E2B",
"$@	c #82532E",
"%@	c #7F4F2C",
"&@	c #A7673F",
"*@	c #BA7747",
"=@	c #CE7F4F",
"-@	c #A5663F",
";@	c #86572F",
">@	c #D08050",
". . . . . . . . . . . . . . . . . . . . . . . . . . . . . . . . . . . . . . . . . . . . . . . . . . . . . . . . . . . . . . . . ",
"+ + + + + + + + + + @ # # $ % . . $ # # @ + + + + + + + + + + + + + + + + + + + + + @ # # $ % . . $ # # @ + + + + + + + + + + + ",
"@ & & @ # @ & & & @ + + & * = . . - # @ # & & & + & @ & & @ & @ + + & # @ # & $ $ # # # & * = . . - & & & & # ; * # $ # # @ & @ ",
"+ + @ & @ # @ + + + + & + * = . . - - $ & & & + + & @ @ # @ @ & + & + @ & & & @ @ & @ # @ * = . . - + + & # # * * # $ @ # # + + ",
"+ + # # @ @ & & & + & & & * = . . - # & @ & & + & & @ & @ @ & @ & + & & @ @ & > @ & # @ # * = . . - & & + & @ @ $ * @ & & & + + ",
"& + @ & & @ @ + + + + + $ * = . . - & # & & & & & & @ # # @ # @ & + & + > + + & @ @ # # $ * = . . - @ & + # # & & # # @ & & + > ",
"& + & & @ & & & & + & + & * = . . - + + & & @ @ # & & & @ # $ @ # # & & + + & & & # $ * $ * = . . - & & & + + & & + & + + & + & ",
"& @ & @ & & + + + & & & & * = . . - + & + @ # @ @ # & # @ @ - @ @ # @ & + & & @ # @ # * $ * = . . - # & @ & & & + > + & & + + + ",
", , , , , ' ' ' ' ) ! ; ; ; = . . ; ; ; ! ) ' ' ' , , , , , , , , , , , , ' ' ' ' ) ! ; ; ; = . . ; ; ; ! ) ' ' ' , , , , , , , ",
"~ ~ ~ ~ ~ ~ ~ ~ ~ ~ ~ ~ ~ ~ ~ . . ~ ~ ~ ~ ~ ~ ~ ~ ~ ~ ~ ~ ~ ~ ~ ~ ~ ~ ~ ~ ~ ~ ~ ~ ~ ~ ~ ~ ~ ~ . . ~ ~ ~ ~ ~ ~ ~ ~ ~ ~ ~ ~ ~ ~ ~ ",
"% % % % % % % % % % % % % % % . . % % % % % % % % % % % % % % % % % % % % % % % % % % % % % % % % % % % % % % % % % % % % % % % ",
". { ] ] ^ / / / / / / / / / / / / / / / / / / / / / ^ ] ] { % . . { ] ] ^ / / / / / / / / / / / / / / / / / / / / / ^ ] ] { % . ",
". { ^ ( / _ ( ( ( ( { { ( ^ ( ^ / / ^ ( ( ^ ( ( ( ] ] ^ ( : = . . { ( ( ^ ^ ^ ( ( ( ( ^ ^ ^ ^ ( _ _ ( ( ( _ ( / / / ( ^ ( : = . ",
". { ( ( / ( ( ^ { ( ( ^ ] ] ( ( / ( ^ ( ^ ( ( ^ ^ ( ( ( ^ : = . . { / ^ ] ] ( ^ ( ^ / / / ( / ( / / / ( _ / / _ _ ( / / / : = . ",
". { ( ( ( ^ ^ ^ { ^ ^ ^ ( ( ( ( / ( / ^ ] ] ^ ( ^ ( ^ ( / : = . . { ( ( ( { { ^ ( ( ( / ^ ( ( ( _ _ < ( / _ _ / _ / / ^ ( : = . ",
". { ^ ( ( ^ ^ ] ^ ( ( / / ^ / ( ( ( / / ^ ( ( ( / ( / ( / : = . . { ( ] { ] ] ] ^ / / / _ / / _ _ _ _ _ ( ( / / / / / / / : = . ",
". { ] ^ ( ( ^ ( / ( / ^ / / ( ( ^ ( ( / ^ ( / / / ( [ } | 1 2 3 . { ^ ] { ^ ( ( ( ( ( _ / _ / / _ / / / ^ ^ / / / _ _ / ( : = . ",
". { ( ( ^ ( ] ( ( / _ / / / / ^ ( ^ ( ( ( ( ( / 4 5 6 7 8 9 0 a b c ^ ^ ^ ^ ^ ( / / ( ( / _ _ _ / / ( / ( ( ^ _ ( ( ( ^ ] : = . ",
". { ( ( ] ( / ( / ( / ( / ( ( / / ^ ^ ( _ _ _ d e f g h i j k l m n ] { ^ { : ( ( ( / ( ( _ / / / ( ( o p | q ^ ( ( / ( ] : = . ",
". r r r r r r r r r r r r r r r r r r r r r 9 s t u v w x x y k ~ z 9 r r r r r r r r r r r r r r r A B C C B A r r r r r r = . ",
". ~ ~ ~ ~ ~ ~ ~ ~ ~ ~ ~ ~ ~ ~ ~ ~ ~ ~ ~ ~ ~ 0 D E y F G G G G H I J 0 ~ ~ ~ ~ ~ ~ ~ ~ ~ ~ ~ ~ ~ ~ K L M N N M L K ~ ~ ~ ~ ~ ~ . ",
". % % % % % % % % % % % % % % % % % % % % a O J P F G G G G G F E Q R % % % % % % % % % % % % % a R Q S T P N K U a % % % % % . ",
"/ / / / / / / / / / ^ ] ] { % . . { ] ] V W X Y Z ` G G ` G ` x  ...f | / / / / / / ^ ] ] { % . b +.@.#.$.x j { %.| / / / / / / ",
"( / / _ / _ / _ < < _ _ < : = . . { / _ 5 &.*.=.$.G G ` -.;.` G >.,.'.).] : ] r { ^ ( / ( : = . !.~.j $.G ` #.{.].X ] ^ ( / ( / ",
"_ _ / / _ _ < _ _ < < _ _ : = . . { / / 6 ^./.(.G G G _.:.<.;.G -.[.}.|.1.{ ] { r ] ] / ( : = b = [.2.` G G 2.A 3.1.( ^ ( / / _ ",
"/ / _ / _ / _ < < _ < / ( : = . . { / 4.5.6.7.;.G G -.=.8. .9.G ` 0.a.h 1.q ] ] { { / ^ / : = !.Q :.x G G ` b.c.X d.( ( ( / / _ ",
"_ _ / / / _ _ _ _ _ < _ ( : = . . { 4 8 e.+.#.` G ;.f.g.r h.>.;.G ;.#.g.i.e.^ ^ ( { ^ ( ( : l j.k._.` G G (.l.X 5.4 ( ( / / / / ",
"/ _ ( / / ( ( / _ / _ / ( : = . . { | V +.m.;.G ` 0.n.o.p.c  .q.G G $. .r.1.q ] ] ^ ^ ( ( s.~ Q t.;.G G -.j r.u.4._ _ / _ / / _ ",
"( _ / ^ ] ( ( / / / / / ( : = . . { V c v.q.G G $.w.x.*.o.6.[.<.` G ` y.Y ^ &.( ( ( ^ ] ( }.z.A.B.G G ;.C.Y p D.4 _ _ ( / / / ( ",
"/ ( ( / ^ ( ( ^ ^ ( ( ( / : = . . n 1.E.C.G G G f.n.|.%.F.G.H.2.` G G <.g.I.J.^ ^ ( ( ^ ( K.D L.F G G _./.3.M.4 _ < < / _ _ _ / ",
"r r r r r r r r r r r r r r = . . B v.N.` G G G 9.O./.9 9 z v.y.;.G G ` N.P.C 9 r r r r 9 C k.T G G G ;.v Q.A r r r r r r r r r ",
"~ ~ ~ ~ ~ ~ ~ ~ ~ ~ ~ ~ ~ ~ ~ . 3 R.S.F G G G G H k.Q ~ ~ 0 D L.B.G G G B.S.R.K ~ ~ ~ ~ K R.S.y G G G F S.R.K ~ ~ ~ ~ ~ ~ ~ ~ ~ ",
"% % % % % % % % % % % % % % % . T.K L.F G G G B.k 2 a % % a R z.U.F G G F V.~ !.% % % % !.2 N B.G G G T R.R % % % % % % % % % % ",
". { ] ] ^ / / / / / / / / / / } d.'.[.$.G G -.W.X.Y.V ] ] { !.= k._.` G _.@.I.( 4 / / / Z.q {.f.` ` 0.C g D./ / / / ^ ] ] { % . ",
". { ] ] { ^ ( / ( / / / ( ( / `. +: y.` G G f..+++%./ ^ / : 2 m J y.$.` x 7.*.^ @+_ / / @+#+B y.` ` C.}.++@+/ ( / ( ^ ( ^ : = . ",
". { ] ( ] { ( ( / ( ( ( ] ^ V V |.g.q.G G -.v.$+`.p ( ( ( : 2 a ~ %+y.` G 0.H.7 &+*+_ / Z. +Y w ` ` 2.r i.%./ ( ( / ( ( ( : = . ",
". { ( ( ( { ^ ( ( ( / / ] { o  +c.:.` G G _.@.F.=+-+/ ] ^ : = T.j.n.%+q.;.(.W.F.;+Z._ / f F.>+9.G ` N.9 i.Z./ / ^ ( ^ ^ ^ : = . ",
". { ( ^ ] ] : { ( ( ( ( / ] 7 ,+,.0.G G ` '+i J.4./ / ] ] : = 3 a B )+v ;.` f.C e.!+*+[ ] ~+W.$.G G <.Q.{+`.( ( ( ( ] ] ] : = . ",
". { ^ ^ ^ ^ ] { ^ ( / / ( ( ^.].W.-.G G 9.n.'.]+*+_ / ^ ] : = . b {.^+w.x ` x a.$+u./+d.X.A (+` G G >.r ] /+/ ( ( ^ ^ ] { : = . ",
". { ( ] { ] ] : { ( ( / / d.`.: _+` G G 0.,.e.`.( ( _ ^ ^ : = . 3 :+$+l.y.;.G f.A q `./+|.v.N.G G ` C.E.X.q ( ( ( ( / / ^ : = . ",
". { ^ ^ ] ] ] { : { ( ( / D.p H.#.` G ;.'+n  +1.( / ( ( ] : = . . o.I.,.#.` ` Z /.e.f `.F.j q.G G x W.o.^.^ ( ( / ( ( / ( : = . ",
". r r r r r r r r r r r 9 /.j N.` G G $.C.l.s r r r r r r r = . . A )+m.-.G G ;.#.a.s A t (+$.G G ;.C.>+A r r r r r r r r r = . ",
". ~ ~ ~ ~ ~ ~ ~ ~ ~ ~ ~ Q M t.F G G G y V.R.K ~ ~ ~ ~ ~ ~ ~ ~ . . K R.E B.G G G y V.R.Q D P F G G F P D 0 ~ ~ ~ ~ ~ ~ ~ ~ ~ ~ . ",
". % % % % % % % % % % !.2 M T G G G y N ~ m % % % % % % % % % . . a R L t.F G G B.S.Q j.<+V.F G G F V.<+!.% % % % % % % % % % . ",
"/ / / / / / / / / / V $+1 w.F G G x [+1 o } / / / / / / / / / / / 4 }+++1 w.$.` -.%+s ..i  .F G G q.>+c |+/ / / / / / / / / / / ",
"( ^ ] ^ ( ( ] { ] ] 6.*.@.9.G G G Z c.F.|+^ ( / ( / ( ] ] ( ( ^ ^ ^ 4.p c t Z ` G -.[+i *.w.F G G q.x.i.Z./ _ / / < _ _ / _ < / ",
"^ ^ ] ] ] ^ ] ] ] | 1++.O.;.G G F m.2+Y.[ ( ( ( ( ^ ( ^ ] ^ ( ( ( ( ( D.3+p.y.` G G N.C r.m.F G G q.z i.Z._ < _ _ _ ( _ / / / _ ",
"/ ^ ^ { ( ] ( ( q ++1+g.<.G G G B.[+7 `./ ( / / _ ( ^ ^ { { ] ( / ^ / /+f ..%+;.G G _.m.r (+F G G q.z |+%.< < < / _ _ / / ( / / ",
"/ ^ / ( ] ^ ( V V '.{.(+;.G G F U.,.[ d./ ( _ / / / ^ ^ { ] { / / / ( d.V 1+@.(.` ` -.Z l.Z F G G x r |+Z.< < < < / / / / ( / ( ",
"( ( ( ] ] ^ ^ f i.r _+x G ` F U.J {.4+*+/ ( / ( ( ( ( ( ] ^ ] ] ^ ^ ( ^ f F.o.7.x ` ;._.0.x G G G -.}.Y.@+/ < < < / ( / / ( ( / ",
"( / ( ^ ] { 7 |.].a.w ` x x P L j...*+/ ( ( ^ ( / ( ( ] ] ] r { { ( ^ ( V ]+`.o.'+-.` ` ` ` G G G -.H.7 @+/ / _ _ < _ ( ( ( / ( ",
"^ ^ / / / 5+++6+K.'+$.` >.2.k O b { ( / / ( ( ( ^ ( ( ^ ] ^ ^ ] ] ] { ( ( p p V s.'+-.G G G G G G x K.$+/+/ ( _ < _ _ / ( / ( / ",
"r r r r r s Q.'+q.` G ` (.=.L T.. r r r r r r r r r r r r r r r r r r r r r .+~.v.:.x G G G G G G -._+/.9 r r r r r r r r r r r ",
"~ ~ ~ ~ K z.N y G G G F P A.z.. . ~ ~ ~ ~ ~ ~ ~ ~ ~ ~ ~ ~ ~ ~ ~ ~ ~ ~ ~ ~ ~ ~ K R.k T F G G G G G B.V.z.~ ~ ~ ~ ~ ~ ~ ~ ~ ~ ~ ~ ",
"% % % % a j.J H G G F t.R.j.a . . % % % % % % % % % % % % % % % % % % % % % % % !.= R.t.F G G G G T Q m % % % % % % % % % % % % ",
". $ # # 7+8+9+0+a+b+c+d+e+f++ + + + + + + + + + + + @ # # $ % . . $ # # @ + + + + g+h+i+j+k+G ` b+l+m+n++ + + + + + @ # # $ % . ",
". - & & o+p+q+r+s+t+u+v+w+o+& & + + + & # $ @ # & & & + + * = . . - + & + @ & & & x+y+z+A+B+C+D+E+F+G+H+& & @ # & + + & > * = . ",
". - & & & I+J+K+L+M+N+O+P+@ & & & + & + & # @ & & + & > + * = . . - # & @ @ @ & & & Q+R+z+S+d+T+U+V+W+X+& & @ @ @ @ & + > * = . ",
". - @ # @ Y+H+Z+`+`+Z+ @X++ @ # @ & @ & + @ # + + + & > + * = . . - $ & & @ & @ & @ + .@+@@@#@#@$@W+%@@ @ @ & @ + & & + & * = . ",
". - $ - @ $ > &@*@*@=@> & @ # @ # & & & & + @ & + + > > & * = . . - & & @ @ # # # # & & Y+-@H+7+;@- & # & + & & + + & + + * = . ",
". - @ $ @ & & + + > > >@+ & @ - $ @ @ + & + & & + + + + & * = . . - $ @ & @ $ # # # # # + & + & @ $ @ @ # + + + > > & @ # * = . ",
". - @ # $ @ & & + + & + & & & @ # @ @ + & + + & & + & + + * = . . - @ $ # $ @ - # @ $ # & @ + + & & # & @ & > + + & + + # * = . ",
". ; ; ; ! ) ' ' ' , , , , , , , , , , , , ' ' ' ' ) ! ; ; ; = . . ; ; ; ! ) ' ' ' , , , , , , , , , , , , ' ' ' ' ) ! ; ; ; = . ",
". ~ ~ ~ ~ ~ ~ ~ ~ ~ ~ ~ ~ ~ ~ ~ ~ ~ ~ ~ ~ ~ ~ ~ ~ ~ ~ ~ ~ ~ ~ . . ~ ~ ~ ~ ~ ~ ~ ~ ~ ~ ~ ~ ~ ~ ~ ~ ~ ~ ~ ~ ~ ~ ~ ~ ~ ~ ~ ~ ~ ~ . "};
