/* XPM */
static char * o_xpm[] = {
"64 64 226 2",
"  	c None",
". 	c #2C2C2C",
"+ 	c #A86840",
"@ 	c #885830",
"# 	c #80502C",
"$ 	c #744C28",
"% 	c #282828",
"& 	c #905C34",
"* 	c #5C4020",
"= 	c #202020",
"- 	c #6C4824",
"; 	c #543C1C",
"> 	c #BC7848",
", 	c #28200C",
"' 	c #382C14",
") 	c #403018",
"! 	c #483818",
"~ 	c #1C1C1C",
"{ 	c #580000",
"] 	c #700000",
"^ 	c #7C0000",
"/ 	c #980000",
"( 	c #880000",
"_ 	c #B00000",
": 	c #4C0000",
"< 	c #C80000",
"[ 	c #870000",
"} 	c #850000",
"| 	c #930000",
"1 	c #830000",
"2 	c #920000",
"3 	c #820000",
"4 	c #490000",
"5 	c #1E1E1E",
"6 	c #2A2A2A",
"7 	c #540000",
"8 	c #6D0000",
"9 	c #570000",
"0 	c #970000",
"a 	c #780000",
"b 	c #7F0000",
"c 	c #810000",
"d 	c #7D0000",
"e 	c #6B0000",
"f 	c #770000",
"g 	c #3A0000",
"h 	c #171717",
"i 	c #440000",
"j 	c #640000",
"k 	c #5D0000",
"l 	c #4D0000",
"m 	c #710000",
"n 	c #840000",
"o 	c #860000",
"p 	c #790000",
"q 	c #6C0000",
"r 	c #600000",
"s 	c #530000",
"t 	c #520000",
"u 	c #4E0000",
"v 	c #390000",
"w 	c #1D0000",
"x 	c #080808",
"y 	c #0E0E0E",
"z 	c #240000",
"A 	c #380000",
"B 	c #400000",
"C 	c #550000",
"D 	c #5E0000",
"E 	c #8D0000",
"F 	c #950000",
"G 	c #670000",
"H 	c #4F0000",
"I 	c #500000",
"J 	c #3B0000",
"K 	c #2A0000",
"L 	c #1F0000",
"M 	c #180000",
"N 	c #110000",
"O 	c #040000",
"P 	c #010101",
"Q 	c #060000",
"R 	c #0B0000",
"S 	c #0A0000",
"T 	c #1C0000",
"U 	c #1A0000",
"V 	c #620000",
"W 	c #7E0000",
"X 	c #3F0000",
"Y 	c #3C0000",
"Z 	c #360000",
"` 	c #2C0000",
" .	c #1E0000",
"..	c #120000",
"+.	c #080000",
"@.	c #030000",
"#.	c #010000",
"$.	c #000000",
"%.	c #020000",
"&.	c #050000",
"*.	c #140000",
"=.	c #200000",
"-.	c #370000",
";.	c #3E0000",
">.	c #1B1B1B",
",.	c #181818",
"'.	c #141414",
").	c #0D0D0D",
"!.	c #060606",
"~.	c #020202",
"{.	c #070707",
"].	c #0F0F0F",
"^.	c #272727",
"/.	c #222222",
"(.	c #1A1A1A",
"_.	c #101010",
":.	c #0B0B0B",
"<.	c #7A0000",
"[.	c #630000",
"}.	c #250000",
"|.	c #040404",
"1.	c #190000",
"2.	c #410000",
"3.	c #310000",
"4.	c #0F0000",
"5.	c #2B2B2B",
"6.	c #C70000",
"7.	c #A30000",
"8.	c #5C0000",
"9.	c #090000",
"0.	c #230000",
"a.	c #300000",
"b.	c #450000",
"c.	c #6F0000",
"d.	c #690000",
"e.	c #6A0000",
"f.	c #610000",
"g.	c #5B0000",
"h.	c #680000",
"i.	c #420000",
"j.	c #0D0000",
"k.	c #0C0C0C",
"l.	c #242424",
"m.	c #C30000",
"n.	c #A40000",
"o.	c #270000",
"p.	c #720000",
"q.	c #7B0000",
"r.	c #A70000",
"s.	c #A90000",
"t.	c #760000",
"u.	c #480000",
"v.	c #510000",
"w.	c #130000",
"x.	c #030303",
"y.	c #151515",
"z.	c #A20000",
"A.	c #8C0000",
"B.	c #340000",
"C.	c #070000",
"D.	c #220000",
"E.	c #800000",
"F.	c #890000",
"G.	c #210000",
"H.	c #170000",
"I.	c #5F0000",
"J.	c #AD0000",
"K.	c #9A0000",
"L.	c #750000",
"M.	c #0A0A0A",
"N.	c #AF0000",
"O.	c #350000",
"P.	c #2D0000",
"Q.	c #AB0000",
"R.	c #131313",
"S.	c #940000",
"T.	c #330000",
"U.	c #430000",
"V.	c #0E0000",
"W.	c #2F0000",
"X.	c #590000",
"Y.	c #1F1F1F",
"Z.	c #260000",
"`.	c #1B0000",
" +	c #8A0000",
".+	c #C10000",
"++	c #0C0000",
"@+	c #212121",
"#+	c #3D0000",
"$+	c #320000",
"%+	c #232323",
"&+	c #191919",
"*+	c #121212",
"=+	c #252525",
"-+	c #100000",
";+	c #8B0000",
">+	c #900000",
",+	c #460000",
"'+	c #4A0000",
")+	c #6E0000",
"!+	c #2E0000",
"~+	c #730000",
"{+	c #910000",
"]+	c #960000",
"^+	c #290000",
"/+	c #160000",
"(+	c #1D1D1D",
"_+	c #560000",
":+	c #150000",
"<+	c #262626",
"[+	c #AE0000",
"}+	c #5A0000",
"|+	c #280000",
"1+	c #4B0000",
"2+	c #470000",
"3+	c #2B0000",
"4+	c #161616",
"5+	c #111111",
"6+	c #050505",
"7+	c #292929",
"8+	c #660000",
"9+	c #740000",
"0+	c #8E0000",
"a+	c #B10000",
"b+	c #C20000",
"c+	c #D08050",
". . . . . . . . . . . . . . . . . . . . . . . . . . . . . . . . . . . . . . . . . . . . . . . . . . . . . . . . . . . . . . . . ",
"+ + + + + + + + + + @ # # $ % . . $ # # @ + + + + + + + + + + + + + + + + + + + + + @ # # $ % . . $ # # @ + + + + + + + + + + + ",
"@ & & @ # @ & & & @ + + & * = . . - # @ # & & & + & @ & & @ & @ + + & # @ # & $ $ # # # & * = . . - & & & & # ; * # $ # # @ & @ ",
"+ + @ & @ # @ + + + + & + * = . . - - $ & & & + + & @ @ # @ @ & + & + @ & & & @ @ & @ # @ * = . . - + + & # # * * # $ @ # # + + ",
"+ + # # @ @ & & & + & & & * = . . - # & @ & & + & & @ & @ @ & @ & + & & @ @ & > @ & # @ # * = . . - & & + & @ @ $ * @ & & & + + ",
"& + @ & & @ @ + + + + + $ * = . . - & # & & & & & & @ # # @ # @ & + & + > + + & @ @ # # $ * = . . - @ & + # # & & # # @ & & + > ",
"& + & & @ & & & & + & + & * = . . - + + & & @ @ # & & & @ # $ @ # # & & + + & & & # $ * $ * = . . - & & & + + & & + & + + & + & ",
"& @ & @ & & + + + & & & & * = . . - + & + @ # @ @ # & # @ @ - @ @ # @ & + & & @ # @ # * $ * = . . - # & @ & & & + > + & & + + + ",
", , , , , ' ' ' ' ) ! ; ; ; = . . ; ; ; ! ) ' ' ' , , , , , , , , , , , , ' ' ' ' ) ! ; ; ; = . . ; ; ; ! ) ' ' ' , , , , , , , ",
"~ ~ ~ ~ ~ ~ ~ ~ ~ ~ ~ ~ ~ ~ ~ . . ~ ~ ~ ~ ~ ~ ~ ~ ~ ~ ~ ~ ~ ~ ~ ~ ~ ~ ~ ~ ~ ~ ~ ~ ~ ~ ~ ~ ~ ~ . . ~ ~ ~ ~ ~ ~ ~ ~ ~ ~ ~ ~ ~ ~ ~ ",
"% % % % % % % % % % % % % % % . . % % % % % % % % % % % % % % % % % % % % % % % % % % % % % % % % % % % % % % % % % % % % % % % ",
". { ] ] ^ / / / / / / / / / / / / / / / / / / / / / ^ ] ] { % . . { ] ] ^ / / / / / / / / / / / / / / / / / / / / / ^ ] ] { % . ",
". { ^ ( / _ ( ( ( ( { { ( ^ ( ^ / / ^ ( ( ^ ( ( ( ] ] ^ ( : = . . { ( ( ^ ^ ^ ( ( ( ( ^ ^ ^ ^ ( _ _ ( ( ( _ ( / / / ( ^ ( : = . ",
". { ( ( / ( ( ^ { ( ( ^ ] ] ( ( / ( ^ ( ^ ( ( ^ ^ ( ( ( ^ : = . . { / ^ ] ] ( ^ ( ^ / / / ( / ( / / / ( _ / / _ _ ( / / / : = . ",
". { ( ( ( ^ ^ ^ { ^ ^ ^ ( ( ( ( / ( / ^ ] ] ^ ( ^ ( ^ ( / : = . . { ( ( ( { { ^ ( ( ( / ^ ( ( ( _ _ < ( / _ _ / _ / / ^ ( : = . ",
". { ^ ( ( ^ ^ ] ^ ( ( / / ^ / ( ( ( / / ^ ( [ } | 1 2 3 2 4 5 6 6 7 1 8 9 ] ] ] ^ / / / _ / / _ _ _ _ _ ( ( / / / / / / / : = . ",
". { ] ^ ( ( ^ ( / ( / ^ / / ( ( ^ ( ( 0 a b [ c d 8 e f f g h = = i j k l m 3 n o [ ( _ / _ / / _ / / / ^ ^ / / / _ _ / ( : = . ",
". { ( ( ^ ( ] ( ( / _ / / / / ^ [ p b a q r s t 4 k u g v w x y y z A B 4 C D ] o E } [ / _ _ _ / / ( / ( ( ^ _ ( ( ( ^ ] : = . ",
". { ( ( ] ( / ( / ( / ( / ( ( F E G { H I J K L M N N N N O P P P Q R S T U T i t V b W o _ / / / ( ( ] ( / ^ ^ ( ( / ( ] : = . ",
". B B B B B B B B B B B B X Y Z `  ...+.@.#.$.$.$.$.$.$.$.$.$.$.$.$.$.$.#.%.@.&.S *.=.` -.;.B B B B B B B B B B B B B B B B = . ",
". ~ ~ ~ ~ ~ ~ ~ ~ ~ ~ ~ >.,.'.).!.~.$.$.$.$.$.$.$.$.$.$.$.$.$.$.$.$.$.$.$.$.$.$.$.$.~.{.].h >.~ ~ ~ ~ ~ ~ ~ ~ ~ ~ ~ ~ ~ ~ ~ ~ . ",
". % % % % % % % % % % ^./.(._.!.~.$.$.$.$.$.$.$.$.P P P P P P P P P P P $.$.$.$.$.$.$.~.:.,./.^.% % % % % % % % % % % % % % % . ",
"/ / / / / / / / / / <.[.l }.|.P $.$.$.$.#.O S 1.K A X 2.2.2.2.2.2.X J 3.z M 4.Q #.$.$.#.4.}.>.^.5.9 ] ] ^ / / / / / / / / / / / ",
"( / / _ / _ / _ < 6.7.c 8.9.$.$.$.#.Q 4.0.a.b.I m c.d.e.f f.f e.e.d.g.h.i.0.K R &.#.$.$.@.j.k.5 l.H 1 c.( / ( ( ] ] ] ^ ( / ( / ",
"_ _ / / _ _ < _ _ m.n.k o.#.$.$.$.9.` Y 8.m p.c q.r.s.s.2 f 3 f e 3 t.m 8 u.v.3.w.4.%.#.#.@.x.y y.Y b 3 ^ ( / ^ ( ^ ( ^ ( / / _ ",
"/ / _ / _ / _ < 6.z.A.B.C.$.$.$.x.D.D m E.F.2 F [ ( / / ( ( ( { { ] ] [ o p d.D A G.H.#.$.$.$.~.x.L I.e.p ^ ^ ^ ^ ( ( ( ( / / _ ",
"_ _ / / / _ _ _ J.K.L.}.#.$.$.P M.v 1 t.F N._ / / / ^ ^ ] ] { ] ] ] ] ] ( ] ^ <.L.O.0.&.$.$.$.$.$.Q P.C G [ ^ / ( / ( ( / / / / ",
"/ _ ( / / ( ( / Q.d { *.$.$.$.x.R.4 S./ ( / / / / ( ^ ^ { ( ] ] ] ^ ] ^ ^ ( ^ ] e D T.R $.$.$.$.$.$.w.U.^ S.( ( / _ _ / _ / / _ ",
"( _ / ^ ] ( ( / 2 p X V.$.$.$.{.(.I [ ( ( / / ( ] ] ] ] { ] { ] ^ ( ] ^ ^ / / ( o L.U...#.$.$.$.$.$.&.W.X.^ N./ / _ _ ( / / / ( ",
"/ ( ( / ^ ( ( ^ L.V W.C.$.$.P :.Y.7 / / / ^ ( / _ ] ( ( ] ] ^ ] ] ^ ( ( ( ( ( ^ q.^ 8.Z.Q $.$.$.$.$.#.`.C  +.+/ _ < < / _ _ _ / ",
"B B B B B B B B v o.++#.$.$.P y @+#+B B B B B B B B B B B B B B B B B B B B B B B #+$+ .9.#.$.$.$.$.$.#.++D.T.#+B B B B B B B B ",
"~ ~ ~ ~ ~ ~ ~ >.h :.P $.$.$.P _.%+>.~ ~ ~ ~ ~ ~ ~ ~ ~ ~ ~ ~ ~ ~ ~ ~ ~ ~ ~ ~ ~ ~ ~ ~ &+*+M.|.~.~.$.$.$.$.P |.).'.(.~ ~ ~ ~ ~ ~ ~ ",
"% % % % % % % ^.Y.].~.$.$.$.x.y.=+^.% % % % % % % % % % % % % % % % % % % % % % % % ^.%+5 &+'.y x.$.$.$.$.P !.*+>.l.^.% % % % % ",
". { ] ] ^ / / 2 <.i -+#.$.C.` V ;+0 / / / / / / / / ^ ] ] { % . . { ] ] ^ / / / / / 0 F >+;+1 q ,+ .&.$.$.#.R }.'+8 )+)+] { % . ",
". { ] ] { ^ ( 2 e i.-+#.$.Q !+X. +N./ _ / / _ / / ( / ^ / : = . . { / / / / _ / _ _ / / N.o } F.8 7 Z.C.$.$.#.O G.X 9 f p : = . ",
". { ] ( ] { ( 3 a J j.$.$.@.U '+q.r.J.0 / _ _ _ / ( ( ( ( : = . . { / ^ / / _ _ / _ _ / / / / <.F.8 9 }.9.#.$.$.&.=.Y k ~+4 = . ",
". { ( ( ( { ^ 1 )+X w.#.$.$.+.P.t e. +{+]+( ( / _ < / ] ^ : = . . { ( _ _ < _ < < / _ / ( / ( ( <. +p.s ^+..%.$.#.O /+$+H J (+5.",
". { ( ^ ] ] : _+~+'+1.#.$.$.%.j.P.H G ^ ^ F / / / / / ] ] : = . . { ( _ / _ _ / / _ _ ( ^ / / ( { c.b X.8 T.:+O #.$.%.4.0.Z.'.<+",
". { ^ ^ ^ ^ ] 9 ] 8.-.V.#.$.$.%.j.T U.7 3 3 b S.[+N./ ^ ] : = . . { / ( _ _ / _ _ ( ( ( ] ] ( ^ ( ] q.1 p.}+b.G.j.%.$.#.O R x >.",
". { ( ] { ] ] : 7 ] v.B.H.C.@.#.%.@.R |+U.t j ] q.E.J.^ ^ : = . . { / ( _ _ / / ( / ( ( ^ { ^ ( ^ ] ] ^ 8 8 j : W.:+O $.$.#.P y ",
". { ^ ^ ] ] ] { 1+t c.9 2+!+w Q $.#.%.+.*.3+-.B { a p n ] : = . . { ( ( / / _ / ( ( ( ( ( { { ( ( ^ ( ^ ( <.W )+f.O.w.%.$.$.$.x.",
". B B B B B B B B X Y A W.}.H.S %.#.$.$.$.#.@.C.-+T 3+O.;.B = . . B B B B B B B B B B B B B B B B B B B B B B #+B.o...%.$.$.$.P ",
". ~ ~ ~ ~ ~ ~ ~ ~ ~ ~ >.(.4+5+:.6+~.P $.$.$.$.$.$.~.{._.4+(.>.. . ~ ~ ~ ~ ~ ~ ~ ~ ~ ~ ~ ~ ~ ~ ~ ~ ~ ~ ~ ~ ~ >.(.,.*+x ~.$.$.$.$.",
". % % % % % % % % % % % % ^.l.= &+*+x x.P $.$.$.$.$.x.:.h (+%+7+5.% % % % % % % % % % % % % % % % % % % ^.l.@+(+&+R.M.~.$.$.$.$.",
"/ / / / / / / / / / ^ ] ] { % 6 ^.,+4 Z Z.w 4.+.@.%.C.T Z u V f o >+F 0 / / / / / / ^ ] ] { % . . _+e 8+G 8 X.i T.}.H.+.#.$.$.#.",
"( ^ ] ^ ( ( ] { ] ] { ^ ] : = . . 7 p e.I X O.K *.C.#.%.+.H.K A I I.[ E 3 2 s.2 3 f 3 3 3 u.(+^.<+'+t.g.t Y P.*.9.C.@.#.$.%.R :+",
"^ ^ ] ] ] ^ ] ] ] / ^ ] ^ : = . . { o {+p m f.v.Z H.O $.$.#.Q :+3+U.7 8 9+a e f.i i 9 r k O.R.&+h ` J P.G.*.+.%.$.$.$.%.Q /+P.t ",
"/ ^ ^ { ( ] ( ( ^ ( / ( ] : = . . { / ( ]+n 0+d f A w.%.$.$.$.%.j.*.K 3.B 2.i.2.v !+B.G.P.:+|.6+|.R 4.S @.%.$.%.%.&.++/+K Y I.9+",
"/ ^ / ( ] ^ ( ^ ( ^ / ( ^ : = . . { / ( / ( _ S.E.j ` j.$.$.$.#.%.%.&.++V.N N V.:+N R &.C.%.$.$.$.#.#.#.$.%.C.*.z }.T.,+g.G n 3 ",
"( ( ( ] ] ^ ^ ( ( ^ ( ( / : = . . { / _ / ( / ( 1 ] 7 a.N S Q %.$.$.$.#.#.#.#.#.#.#.#.$.$.$.$.$.$.$.#.%.Q -+3.1+j 8.I.f } b o / ",
"( / ( ^ ] { ^ ^ / ( ( / < : = . . { _ / ( ( ^ ( 0 c ] 1+A !+-+4.&.Q %.#.$.#.#.#.#.#.#.#.$.$.$.$.$.%.V.M W.#+7 q.0+a+7.1 o [ / ( ",
"^ ^ / / / _ ( ( _ _ / / / : = . . { ( / / ( ( ( ^ [ 3 ] k D t J ` L ++4.j.j.N :+:+N -+4.++%.$.P x./+J Y t c.m z.b+[+_ / ( / ( / ",
"B B B B B B B B B B B B B B = . . B B B B B B B B B B X ;.Y v O.P.o.L U H.H.H.H.H.H.H./+*.*.{.].y.|+W.T.-.J ;.B B B B B B B B B ",
"~ ~ ~ ~ ~ ~ ~ ~ ~ ~ ~ ~ ~ ~ ~ . . ~ ~ ~ ~ ~ ~ ~ ~ ~ ~ ~ ~ ~ ~ >.(.,.4+'.'.R.'.'.'.'.'.R.R.R.R./.=+&+(.>.>.~ ~ ~ ~ ~ ~ ~ ~ ~ ~ ~ ",
"% % % % % % % % % % % % % % % . . % % % % % % % % % % % % % % % % ^.^.<+<+<+<+<+<+<+<+<+<+<+<+6 5.% % % % % % % % % % % % % % % ",
". $ # # @ + + + + + + + + + + + + + + + + + + + + + @ # # $ % . . $ # # @ + + + + + + + + + + + + + + + + + + + + + @ # # $ % . ",
". - & & + & + + > + + + > + & & + + + & # $ @ # & & & + + * = . . - + & + @ & & & > > > + > + & & + + & & & @ # & + + & > * = . ",
". - & & & + @ > > c+c+> & @ & & & + & + & # @ & & + & > + * = . . - # & @ @ @ & & & > + > + + + & + @ & & & @ @ @ @ & + > * = . ",
". - @ # @ + & > > > > > & + @ # @ & @ & + @ # + + + & > + * = . . - $ & & @ & @ & @ + & + + & & & @ # @ @ @ & @ + & & + & * = . ",
". - $ - @ $ > + > > c+> & @ # @ # & & & & + @ & + + > > & * = . . - & & @ @ # # # # & & + + & @ @ - & # & + & & + + & + + * = . ",
". - @ $ @ & & + + > > c++ & @ - $ @ @ + & + & & + + + + & * = . . - $ @ & @ $ # # # # # + & + & @ $ @ @ # + + + > > & @ # * = . ",
". - @ # $ @ & & + + & + & & & @ # @ @ + & + + & & + & + + * = . . - @ $ # $ @ - # @ $ # & @ + + & & # & @ & > + + & + + # * = . ",
". ; ; ; ! ) ' ' ' , , , , , , , , , , , , ' ' ' ' ) ! ; ; ; = . . ; ; ; ! ) ' ' ' , , , , , , , , , , , , ' ' ' ' ) ! ; ; ; = . ",
". ~ ~ ~ ~ ~ ~ ~ ~ ~ ~ ~ ~ ~ ~ ~ ~ ~ ~ ~ ~ ~ ~ ~ ~ ~ ~ ~ ~ ~ ~ . . ~ ~ ~ ~ ~ ~ ~ ~ ~ ~ ~ ~ ~ ~ ~ ~ ~ ~ ~ ~ ~ ~ ~ ~ ~ ~ ~ ~ ~ ~ . "};
