/* XPM */
static char * s_xpm[] = {
"64 64 244 2",
"  	c None",
". 	c #2C2C2C",
"+ 	c #A86840",
"@ 	c #885830",
"# 	c #80502C",
"$ 	c #744C28",
"% 	c #282828",
"& 	c #905C34",
"* 	c #5C4020",
"= 	c #202020",
"- 	c #6C4824",
"; 	c #543C1C",
"> 	c #BC7848",
", 	c #28200C",
"' 	c #382C14",
") 	c #403018",
"! 	c #483818",
"~ 	c #1C1C1C",
"{ 	c #580000",
"] 	c #700000",
"^ 	c #7C0000",
"/ 	c #980000",
"( 	c #880000",
"_ 	c #B00000",
": 	c #4C0000",
"< 	c #2B2B2B",
"[ 	c #540000",
"} 	c #820000",
"| 	c #810000",
"1 	c #800000",
"2 	c #530000",
"3 	c #550000",
"4 	c #7B0000",
"5 	c #C80000",
"6 	c #870000",
"7 	c #950000",
"8 	c #480000",
"9 	c #252525",
"0 	c #232323",
"a 	c #460000",
"b 	c #670000",
"c 	c #510000",
"d 	c #3F0000",
"e 	c #560000",
"f 	c #5F0000",
"g 	c #680000",
"h 	c #7A0000",
"i 	c #970000",
"j 	c #850000",
"k 	c #890000",
"l 	c #7F0000",
"m 	c #380000",
"n 	c #121212",
"o 	c #151515",
"p 	c #111111",
"q 	c #240000",
"r 	c #2F0000",
"s 	c #260000",
"t 	c #1C0000",
"u 	c #340000",
"v 	c #6B0000",
"w 	c #940000",
"x 	c #8C0000",
"y 	c #AB0000",
"z 	c #440000",
"A 	c #190000",
"B 	c #040404",
"C 	c #030303",
"D 	c #020202",
"E 	c #060000",
"F 	c #090000",
"G 	c #050000",
"H 	c #0C0000",
"I 	c #270000",
"J 	c #AE0000",
"K 	c #A60000",
"L 	c #960000",
"M 	c #7D0000",
"N 	c #3B0000",
"O 	c #280000",
"P 	c #180000",
"Q 	c #020000",
"R 	c #000000",
"S 	c #070000",
"T 	c #470000",
"U 	c #710000",
"V 	c #830000",
"W 	c #400000",
"X 	c #300000",
"Y 	c #220000",
"Z 	c #130000",
"` 	c #010000",
" .	c #200000",
"..	c #350000",
"+.	c #3E0000",
"@.	c #1A1A1A",
"#.	c #131313",
"$.	c #090909",
"%.	c #010101",
"&.	c #060606",
"*.	c #101010",
"=.	c #181818",
"-.	c #1B1B1B",
";.	c #262626",
">.	c #1F1F1F",
",.	c #070707",
"'.	c #0B0B0B",
").	c #0D0D0D",
"!.	c #191919",
"~.	c #6F0000",
"{.	c #630000",
"].	c #4F0000",
"^.	c #2D0000",
"/.	c #0F0000",
"(.	c #1F0000",
"_.	c #310000",
":.	c #720000",
"<.	c #760000",
"[.	c #790000",
"}.	c #920000",
"|.	c #910000",
"1.	c #5E0000",
"2.	c #110000",
"3.	c #430000",
"4.	c #690000",
"5.	c #6C0000",
"6.	c #770000",
"7.	c #7E0000",
"8.	c #4A0000",
"9.	c #6E0000",
"0.	c #570000",
"a.	c #620000",
"b.	c #150000",
"c.	c #450000",
"d.	c #780000",
"e.	c #520000",
"f.	c #040000",
"g.	c #860000",
"h.	c #3C0000",
"i.	c #120000",
"j.	c #600000",
"k.	c #100000",
"l.	c #660000",
"m.	c #4D0000",
"n.	c #2A0000",
"o.	c #8B0000",
"p.	c #030000",
"q.	c #3D0000",
"r.	c #160000",
"s.	c #1B0000",
"t.	c #330000",
"u.	c #171717",
"v.	c #0F0F0F",
"w.	c #242424",
"x.	c #4B0000",
"y.	c #170000",
"z.	c #3A0000",
"A.	c #AF0000",
"B.	c #650000",
"C.	c #390000",
"D.	c #210000",
"E.	c #222222",
"F.	c #5B0000",
"G.	c #050505",
"H.	c #5A0000",
"I.	c #A40000",
"J.	c #C50000",
"K.	c #410000",
"L.	c #1E0000",
"M.	c #080000",
"N.	c #6D0000",
"O.	c #9C0000",
"P.	c #AD0000",
"Q.	c #5C0000",
"R.	c #1A0000",
"S.	c #930000",
"T.	c #140000",
"U.	c #4E0000",
"V.	c #0A0A0A",
"W.	c #141414",
"X.	c #272727",
"Y.	c #212121",
"Z.	c #290000",
"`.	c #0E0000",
" +	c #8E0000",
".+	c #750000",
"++	c #8A0000",
"@+	c #A90000",
"#+	c #2E0000",
"$+	c #420000",
"%+	c #490000",
"&+	c #730000",
"*+	c #840000",
"=+	c #230000",
"-+	c #500000",
";+	c #320000",
">+	c #0A0000",
",+	c #0B0000",
"'+	c #5D0000",
")+	c #8F0000",
"!+	c #1D0000",
"~+	c #2C0000",
"{+	c #0E0E0E",
"]+	c #A76840",
"^+	c #A3653E",
"/+	c #955C38",
"(+	c #835030",
"_+	c #6B4026",
":+	c #58341E",
"<+	c #4C2C19",
"[+	c #492A17",
"}+	c #392310",
"|+	c #351F0D",
"1+	c #341E0D",
"2+	c #2E1B0B",
"3+	c #0C0C0C",
"4+	c #161616",
"5+	c #4E3218",
"6+	c #5F3A1F",
"7+	c #653E21",
"8+	c #704826",
"9+	c #945B37",
"0+	c #9E613C",
"a+	c #A4663E",
"b+	c #7E4F2B",
"c+	c #6D4725",
"d+	c #794E2A",
"e+	c #6A4223",
"f+	c #744928",
"g+	c #714727",
"h+	c #845130",
"i+	c #463017",
"j+	c #634221",
"k+	c #A0633D",
"l+	c #8A5832",
"m+	c #86572F",
"n+	c #8F5C34",
"o+	c #D08050",
"p+	c #8C5932",
"q+	c #8B5832",
"r+	c #A1643D",
"s+	c #B47345",
"t+	c #583D1E",
"u+	c #1E1E1E",
". . . . . . . . . . . . . . . . . . . . . . . . . . . . . . . . . . . . . . . . . . . . . . . . . . . . . . . . . . . . . . . . ",
"+ + + + + + + + + + @ # # $ % . . $ # # @ + + + + + + + + + + + + + + + + + + + + + @ # # $ % . . $ # # @ + + + + + + + + + + + ",
"@ & & @ # @ & & & @ + + & * = . . - # @ # & & & + & @ & & @ & @ + + & # @ # & $ $ # # # & * = . . - & & & & # ; * # $ # # @ & @ ",
"+ + @ & @ # @ + + + + & + * = . . - - $ & & & + + & @ @ # @ @ & + & + @ & & & @ @ & @ # @ * = . . - + + & # # * * # $ @ # # + + ",
"+ + # # @ @ & & & + & & & * = . . - # & @ & & + & & @ & @ @ & @ & + & & @ @ & > @ & # @ # * = . . - & & + & @ @ $ * @ & & & + + ",
"& + @ & & @ @ + + + + + $ * = . . - & # & & & & & & @ # # @ # @ & + & + > + + & @ @ # # $ * = . . - @ & + # # & & # # @ & & + > ",
"& + & & @ & & & & + & + & * = . . - + + & & @ @ # & & & @ # $ @ # # & & + + & & & # $ * $ * = . . - & & & + + & & + & + + & + & ",
"& @ & @ & & + + + & & & & * = . . - + & + @ # @ @ # & # @ @ - @ @ # @ & + & & @ # @ # * $ * = . . - # & @ & & & + > + & & + + + ",
", , , , , ' ' ' ' ) ! ; ; ; = . . ; ; ; ! ) ' ' ' , , , , , , , , , , , , ' ' ' ' ) ! ; ; ; = . . ; ; ; ! ) ' ' ' , , , , , , , ",
"~ ~ ~ ~ ~ ~ ~ ~ ~ ~ ~ ~ ~ ~ ~ . . ~ ~ ~ ~ ~ ~ ~ ~ ~ ~ ~ ~ ~ ~ ~ ~ ~ ~ ~ ~ ~ ~ ~ ~ ~ ~ ~ ~ ~ ~ . . ~ ~ ~ ~ ~ ~ ~ ~ ~ ~ ~ ~ ~ ~ ~ ",
"% % % % % % % % % % % % % % % . . % % % % % % % % % % % % % % % % % % % % % % % % % % % % % % % % % % % % % % % % % % % % % % % ",
". { ] ] ^ / / / / / / / / / / / / / / / / / / / / / ^ ] ] { % . . { ] ] ^ / / / / / / / / / / / / / / / / / / / / / ^ ] ] { % . ",
". { ^ ( / _ ( ( ( ( { { ( ^ ( ^ / / ^ ( ( ^ ( ( ( ] ] ^ ( : = . . { ( ( ^ ^ ^ ( ( ( ( ^ ^ ^ ^ ( _ _ ( ( ( _ ( / / / ( ^ ( : = . ",
". { ( ( / ( ( ^ { ( ( ^ ] ] ( ( / ( ^ ( ^ ( ( ^ ^ ( ( ( ^ : = . . { / ^ ] ] ( ^ ( ^ / / / ( / ( / / / ( _ / / _ _ ( / / / : = . ",
". { ( ( ( ^ ^ ^ { ^ ^ ^ ( ( ( ( / ( / ^ ] ] ^ ( ^ ( ^ ( / : = < < [ } | 1 2 3 4 ( ( ( / ^ ( ( ( _ _ 5 ( / _ _ / _ / / ^ ( : = . ",
". { ^ ( ( ^ ^ ] ^ ( ( / / ^ / ( ( ( / / ^ ( ( ( / ( / 6 7 8 ~ 9 0 a b c d e f g h / / / _ / / _ _ _ _ _ ( ( / / / / / / / : = . ",
". { ] ^ ( ( ^ ( / ( / ^ / / ( ( ^ ( ( / ^ ( / / i j | k l m n o p q r s t u c v l 6 ( _ / _ / / _ / / / ^ ^ / / / _ _ / ( : = . ",
". { ( ( ^ ( ] ( ( / _ / / / / ^ ( ^ ( ( ( ( 6 w x y j e z A B C D E F E G H I e j w ( ( / _ _ _ / / ( / ( ( ^ _ ( ( ( ^ ] : = . ",
". { ( ( ] ( / ( / ( / ( / ( ( / / ^ ^ ( _ J K L M 2 N O P Q R R R R R R R R S T U V / ( ( _ / / / ( ( ] ( / ^ ^ ( ( / ( ] : = . ",
". W W W W W W W W W W W W W W W W W W W d N X Y Z S Q ` R R R R R R R R R R S  ...+.W W W W W W W W W W W W W W W W W W W W = . ",
". ~ ~ ~ ~ ~ ~ ~ ~ ~ ~ ~ ~ ~ ~ ~ ~ ~ ~ ~ @.#.$.D R R R R R R R R R R R R %.%.&.*.=.-.~ ~ ~ ~ ~ ~ ~ ~ ~ ~ ~ ~ ~ ~ ~ ~ ~ ~ ~ ~ ~ . ",
". % % % % % % % % % % % % % % % % % % ;.>.p B R R R R R R R R %.B ,.$.'.).p !.= ;.% % % % % % % % % % % % % % % % % % % % % % . ",
"/ / / / / / / / / / ^ ] ] { % . . { ~.{.].^.S R R R Q E /.(._.z { g :.<.[.l k }.i / ^ ] ] { % . . { ] ] ^ / / / / / / / / / / / ",
"( / / _ / _ / _ 5 5 _ _ 5 : = . . { |.k 1.P ` R R Q 2.I 3.a 4.5.6.7.<.}.5.8.9.W { ^ ( / ( : = . . { ( ] ( / ( ( ] ] ] ^ ( / ( / ",
"_ _ / / _ _ 5 _ _ 5 5 _ _ : = . . 0.k a.u E R R ` b.c.9.6.5.7.d.9.6 ^ ^ ^ { ] { W ] ] / ( : = . . { / ( ^ ( / ^ ( ^ ( ^ ( / / _ ",
"/ / _ / _ / _ 5 5 _ 5 / ( : = . . e | e.A ` R R f.q 1.V V g.6 { { ] ] ( ( ^ ] ] { { / ^ / : = . . { / ^ ^ ^ ^ ^ ^ ( ( ( ( / / _ ",
"_ _ / / / _ _ _ _ _ 5 _ ( : = . . 3 7.h.i.` R ` 2.W j.d.] ] { ] ] ] ] ] ( ] ^ ^ ( { ^ ( ( : = . . { ^ ^ ] ( ^ / ( / ( ( / / / / ",
"/ _ ( / / ( ( / _ / _ / ( : = . . 3 7.: k.R R ` Z +.l.[.{ ( ] ] ] ^ ] ^ ^ ( ^ ] ] ^ ^ ( ( : = . . { ^ ( / / ( ( / _ _ / _ / / _ ",
"( _ / ^ ] ( ( / / / / / ( : = . . 0.<.m.A ` R R E n.3 5.{ ] { ] ^ ( ] ^ ^ / / ( ( ( ^ ] ( : = . . { ( / ( ( _ / / _ _ ( / / / ( ",
"/ ( ( / ^ ( ( ^ ^ ( ( ( / : = . . { o.l.^.p.R R E t 0.4 ~.] ^ ] ] ^ ( ( ( ( ( ^ ^ ( ( ^ ( : = . . { / _ _ _ 5 / _ 5 5 / _ _ _ / ",
"W W W W W W W W W W W W W W = . . W q.X r.Q R R R f.s.t.+.W W W W W W W W W W W W W W W W W = . . W W W W W W W W W W W W W W W ",
"~ ~ ~ ~ ~ ~ ~ ~ ~ ~ ~ ~ ~ ~ ~ . . ~ -.u.'.%.R R R R C v.!.~ ~ ~ ~ ~ ~ ~ ~ ~ ~ ~ ~ ~ ~ ~ ~ ~ ~ . . ~ ~ ~ ~ ~ ~ ~ ~ ~ ~ ~ ~ ~ ~ ~ ",
"% % % % % % % % % % % % % % % . . % % w.!.,.R R R R D ).~ ;.% % % % % % % % % % % % % % % % % . . % % % % % % % % % % % % % % % ",
". { ] ] ^ / / / / / / / / / / / / / / w ^ x.y.` R R p.P z.3.w.< . { ] ] ^ / / / / / / / / / / / / / / / / / / / / / ^ ] ] { % . ",
". { ] ] { ^ ( / ( / / / ( ( / ( / _ / A.o.B.C.S R R R E I D.n E.% e i / / / _ / _ _ / / _ ( ( / / _ _ _ / _ / ( / ( ^ ( ^ : = . ",
". { ] ( ] { ( ( / ( ( ( ] ^ ^ ( / _ _ / w |.F.Y Q R R ` G S G.p @.T o.[.i / _ _ / _ _ / / / / ^ / / _ / ( ( / ( ( / ( ( ( : = . ",
". { ( ( ( { ^ ( ( ( / / ] { ] ( ( ( / / i 7.a.W s.f.R R R R R D ,.O H.|.I.J._ 5 5 / _ / ( / ( ( ^ / / / ( / / / ^ ( ^ ^ ^ : = . ",
". { ( ^ ] ] : { ( ( ( ( / ] ^ ] ( / / / ( L 6 l.K.L.M.R R R R R R F n.F.N.O.P./ / _ _ ( ^ / / ( { ] ( ] _ ( ( ( ( ( ] ] ] : = . ",
". { ^ ^ ^ ^ ] { ^ ( / / ( ( ( ( ( ( _ / _ / j 6 l Q.^.H ` R R R R R S P 8.<.j P._ ( ( ( ] ] ( ^ ( ] ^ ( ( ( / ( ( ^ ^ ] { : = . ",
". { ( ] { ] ] : { ( ( / / ( / ( / ( ^ / / ( ( g.7.5.N.r b.Q R R R R R ` R.8 g 6 g./ ( ( ^ { ^ ( ^ ] ] ^ ] ^ ( ( ( ( / / ^ : = . ",
". { ^ ^ ] ] ] { : { ( ( / / _ / / ( / / ( / ( ^ 6 S.<.j.m T.%.R R R R R Q P U.5.^ 6 ( ( ( { { ( ( ^ ( ^ ( ^ ( ( / ( ( / ( : = . ",
". W W W W W W W W W W W W W W W W W W W W W W W W W d N t.O V.,.D ` R R R ` E R.^.N W W W W W W W W W W W W W W W W W W W W = . ",
". ~ ~ ~ ~ ~ ~ ~ ~ ~ ~ ~ ~ ~ ~ ~ ~ ~ ~ ~ ~ ~ ~ ~ ~ ~ ~ ~ -.!.o @.*.D R R R R R D $.W.-.~ ~ ~ ~ ~ ~ ~ ~ ~ ~ ~ ~ ~ ~ ~ ~ ~ ~ ~ ~ . ",
". % % % % % % % % % % % % % % % % % % % % % % % % % % % % % X.X.= #.&.%.R R R R G.W.Y.X.% % % % % % % % % % % % % % % % % % % . ",
"/ / / / / / / / / / ^ ] ] { % . . { ] ] ^ / / / / / / / / / / i }.^ { Z.E R R ` `.h.H.4.] { % . . { ] ] ^ / / / / / / / / / / / ",
"( ^ ] ^ ( ( ] { ] ] { ^ ] : = . . { ( 6 4 4 6 / ( / ( ] ] ( ( ^ ^ 6.d.x.b.` R R ` A ].6.g.: = . . { / ( / / _ / / 5 _ _ / _ 5 / ",
"^ ^ ] ] ] ^ ] ] ] / ^ ] ^ : = . . { j }.1 1 } j 6 ^ ( ^ ] ^ ( ( ( 6 7.g t.M.R R R G _.{.d.: = . . { ( ( / _ 5 _ _ _ ( _ / / / _ ",
"/ ^ ^ { ( ] ( ( ^ ( / ( ] : = . . e  +.+4 9.| ++@+g.^ ^ { { ~.g.w 6.o.a.h.2.` R R f.#+$+<.: = . . { ( / ( 5 5 5 / _ _ / / ( / / ",
"/ ^ / ( ] ^ ( ^ ( ^ / ( ^ : = . . [ | f e %+~.~.7.6 &+<.[ 4.].*+7.<.Q.c.=+M.R R R E ^.$+<.: = . . { / / / 5 5 5 5 / / / / ( / ( ",
"( ( ( ] ] ^ ^ ( ( ^ ( ( / : = . < -+:.H.O L.;+z.a 3 j.l.2 0.a +.N X Z.b.S ` R R R >+N {.5.: = . . { _ _ _ / 5 5 5 / ( / / ( ( / ",
"( / ( ^ ] { ^ ^ / ( ( / 5 : = . < U.^ N 2.F ,+2.R.Y r n.O Y ,+H S >+f.` R R R R p.q ].<.9.: = . . { / / _ / / _ _ 5 _ ( ( ( / ( ",
"^ ^ / / / _ ( ( _ _ / / / : = . < ].'+z.`.p.` ` ` f.M.F E G Q ` R R R R R R R G Y 8 &+)+i : = . . { / ^ ( / ( _ 5 _ _ / ( / ( / ",
"W W W W W W W W W W W W W W = . < N X !+F ` R R R R R R R R R R R R R R R R Q F R.~+z.d W W = . . W W W W W W W W W W W W W W W ",
"~ ~ ~ ~ ~ ~ ~ ~ ~ ~ ~ ~ ~ ~ ~ . . -.u.*.,.D R R R R R R R R R R R R R R %.D G.'.#.!.-.~ ~ ~ ~ . . ~ ~ ~ ~ ~ ~ ~ ~ ~ ~ ~ ~ ~ ~ ~ ",
"% % % % % % % % % % % % % % % . . % ;.Y.!.v.&.D %.%.%.%.%.%.%.%.C &.$.'.{+W.@.Y.9 X.% % % % % . . % % % % % % % % % % % % % % % ",
". $ # # @ + + + + + + + + + + + + + ]+^+/+(+_+:+<+[+}+|+1+2+3+p 4+5+6+7+8+9+0+a+]++ + + + + + + + + + + + + + + + + @ # # $ % . ",
". - & & + & + + > + + + > + & & + + + & b+c+d+e+f+g+g+h+(+i+u.0 ;.j+k+l+^+m+n+& & > > > + > + & & + + & & & @ # & + + & > * = . ",
". - & & & + @ > > o+o+> & @ & & & + & + & # m+p+q+r+l+s+r+t+u+< < - # & @ @ @ & & & > + > + + + & + @ & & & @ @ @ @ & + > * = . ",
". - @ # @ + & > > > > > & + @ # @ & @ & + @ # + + + & > + * = . . - $ & & @ & @ & @ + & + + & & & @ # @ @ @ & @ + & & + & * = . ",
". - $ - @ $ > + > > o+> & @ # @ # & & & & + @ & + + > > & * = . . - & & @ @ # # # # & & + + & @ @ - & # & + & & + + & + + * = . ",
". - @ $ @ & & + + > > o++ & @ - $ @ @ + & + & & + + + + & * = . . - $ @ & @ $ # # # # # + & + & @ $ @ @ # + + + > > & @ # * = . ",
". - @ # $ @ & & + + & + & & & @ # @ @ + & + + & & + & + + * = . . - @ $ # $ @ - # @ $ # & @ + + & & # & @ & > + + & + + # * = . ",
". ; ; ; ! ) ' ' ' , , , , , , , , , , , , ' ' ' ' ) ! ; ; ; = . . ; ; ; ! ) ' ' ' , , , , , , , , , , , , ' ' ' ' ) ! ; ; ; = . ",
". ~ ~ ~ ~ ~ ~ ~ ~ ~ ~ ~ ~ ~ ~ ~ ~ ~ ~ ~ ~ ~ ~ ~ ~ ~ ~ ~ ~ ~ ~ . . ~ ~ ~ ~ ~ ~ ~ ~ ~ ~ ~ ~ ~ ~ ~ ~ ~ ~ ~ ~ ~ ~ ~ ~ ~ ~ ~ ~ ~ ~ . "};
