/* XPM */
static char *_36ffd3b192d49b5def8a5728489be1287oINi5A2ErTJISQ[] = {
/* columns rows colors chars-per-pixel */
"64 64 223 2 ",
"   c None",
".  c #000000",
"X  c #040117",
"o  c #0F0D00",
"O  c #380003",
"+  c #350012",
"@  c #25010B",
"#  c #010027",
"$  c #001523",
"%  c #030636",
"&  c #1B003A",
"*  c #0D102F",
"=  c #01382A",
"-  c #003833",
";  c #0E2833",
":  c #2C2F3C",
">  c #420008",
",  c #5D0000",
"<  c #540008",
"1  c #590311",
"2  c #4B0916",
"3  c #650105",
"4  c #771E04",
"5  c #630613",
"6  c #751816",
"7  c #700F11",
"8  c #6D2615",
"9  c #76330E",
"0  c #6B1C20",
"q  c #5F262B",
"w  c #6D2D26",
"e  c #542C1A",
"r  c #00430F",
"t  c #07432C",
"y  c #17462E",
"u  c #064834",
"i  c #0D5936",
"p  c #255C37",
"a  c #0E6C35",
"s  c #346D37",
"d  c #455C3D",
"f  c #497C3B",
"g  c #080046",
"h  c #190448",
"j  c #040055",
"k  c #150D4F",
"l  c #27014D",
"z  c #26055B",
"x  c #291757",
"c  c #37005D",
"v  c #1A2D53",
"b  c #232A41",
"n  c #34265A",
"m  c #2E3149",
"M  c #000068",
"N  c #190069",
"B  c #000074",
"V  c #1B0B75",
"C  c #260065",
"Z  c #380673",
"A  c #25176E",
"S  c #282666",
"D  c #272874",
"F  c #312A79",
"G  c #27377A",
"H  c #34387B",
"J  c #322866",
"K  c #1D2D7A",
"L  c #44137C",
"P  c #480071",
"I  c #38414B",
"U  c #3C4654",
"Y  c #395649",
"T  c #186140",
"R  c #2E7E42",
"E  c #34447D",
"W  c #485056",
"Q  c #426B42",
"!  c #535A62",
"~  c #4D5963",
"^  c #5A6B67",
"/  c #616E6C",
"(  c #646D71",
")  c #697574",
"_  c #73777B",
"`  c #60706D",
"'  c #880003",
"]  c #900D0D",
"[  c #B80000",
"{  c #AB0D17",
"}  c #913517",
"|  c #A32F1F",
" . c #9F3022",
".. c #C73523",
"X. c #D43B26",
"o. c #895513",
"O. c #96531E",
"+. c #8D4B16",
"@. c #A76D0F",
"#. c #AC5229",
"$. c #AC7D29",
"%. c #D14B2F",
"&. c #E85632",
"*. c #C15C49",
"=. c #47883C",
"-. c #54833B",
";. c #518D45",
":. c #669C45",
">. c #66A347",
",. c #77AA4D",
"<. c #67866C",
"1. c #9D9F00",
"2. c #B1831A",
"3. c #BB8728",
"4. c #A4A809",
"5. c #C39C1F",
"6. c #CBA91C",
"7. c #C59E20",
"8. c #B8886E",
"9. c #93AD70",
"0. c #9EA84E",
"q. c #D1876D",
"w. c #B1C755",
"e. c #B6C971",
"r. c #B4D16F",
"t. c #D7FF5B",
"y. c #C3D775",
"u. c #DBFD77",
"i. c #CDEA6E",
"p. c #C4CB53",
"a. c #05008B",
"s. c #280086",
"d. c #0E2E97",
"f. c #273E83",
"g. c #2F338C",
"h. c #4E1886",
"j. c #562788",
"k. c #5B2899",
"l. c #4A2E83",
"z. c #6A2F97",
"x. c #5B18A3",
"c. c #7631B1",
"v. c #294788",
"b. c #2F4F92",
"n. c #2D58A8",
"m. c #3269A4",
"M. c #326FB7",
"N. c #45498D",
"B. c #7B428C",
"V. c #7B7693",
"C. c #455BA8",
"Z. c #465BB0",
"A. c #5C7DAF",
"S. c #4D69AB",
"D. c #0070C0",
"F. c #5576CA",
"G. c #823DB0",
"H. c #9049B3",
"J. c #A95DBB",
"K. c #9272B0",
"L. c #BC6BB0",
"P. c #8234C0",
"I. c #9749C9",
"U. c #A14ED2",
"Y. c #A952DB",
"T. c #B759E9",
"R. c #D87FC7",
"E. c #7C8985",
"W. c #718BB8",
"Q. c #3D8DCF",
"!. c #4C92D0",
"~. c #6D8FCA",
"^. c #46A5DE",
"/. c #4AB1E9",
"(. c #72A5E3",
"). c #71C8D6",
"_. c #75D1E3",
"`. c #8E9594",
"'. c #84948C",
"]. c #9B9EA0",
"[. c #B98BB8",
"{. c #B5B9B8",
"}. c #A9B1A8",
"|. c #A79D93",
" X c #F4B996",
".X c #F0B28E",
"XX c #EFBFA7",
"oX c #D59A88",
"OX c #B1C59A",
"+X c #F9C09C",
"@X c #CBE886",
"#X c #CAD4A7",
"$X c #E7FFB2",
"%X c #84ADE2",
"&X c #83B2EB",
"*X c #9BB3CD",
"=X c #CD97C2",
"-X c #FB98D4",
";X c #FD95CD",
":X c #CBB1CC",
">X c #FFA5DC",
",X c #FCBADE",
"<X c #FFA6E2",
"1X c #BFC1C0",
"2X c #BFC1D2",
"3X c #8AF9FD",
"4X c #96FEFF",
"5X c #A3DCEF",
"6X c #C5C5C6",
"7X c #D6C7C7",
"8X c #D7D3D3",
"9X c #D1CFD0",
"0X c #F1DFD9",
"qX c #F1E5D2",
"wX c #CFD4E1",
"eX c #FFD9EC",
"rX c #D2FAFD",
"tX c #D2ECF4",
"yX c #F9FBE7",
"uX c #E8F6FF",
"iX c #FEFEFF",
"pX c #F9FAF7",
"aX c #EDEBED",
/* pixels */
"                                                                                                                                ",
"                                                                                                                                ",
"                                                                                                                                ",
"                                                                                                                                ",
"                                                                                                                                ",
"                                                                                                                                ",
"                                                                                                                                ",
"                                                                                                                                ",
"                                                                                                                                ",
"                                                                                                                                ",
"                                                                                                                                ",
"                                                                                                                                ",
"                                                                                                                                ",
"                                                                                                                                ",
"                                                                                                                                ",
"                                                                                                                                ",
"                                                                                                                                ",
"                                                                                                                                ",
"                                                                                                                                ",
"                                                        [.:X[.L.L.z.L                                                           ",
"                                                      =XiXiX>X>X<XJ.s.j.                                                        ",
"                                                    =XiXiXeX-X-X>XR.j j.h.                                                      ",
"                                                  =XiXiXiX,X;X-X-X;XG.h.c.h.                                                    ",
"                                                  K.V.V.K.H.B.B.B.H.G.Z h.k.n                                                   ",
"                                                    M j s.P.x.s.x.c.g g h.c                                                     ",
"                                                    N.l.J H.U.I.U.H.g j.c                                                       ",
"                                    4.yXpXu.t.i.$.}     Z C U.T.Y.L l.l   tXiX4X3X3X!.n.v.                                      ",
"                                  1.yXiXyXt.u.u.0.< O.  V C z.T.G.F g   rXiXiX4X4X4X).M n.G                                     ",
"                                e.pXiXiX$Xt.u.u.i.4 9 O.  N L U.k.j   uXiXiXrX3X4X4X3Xm.K M.v.                                  ",
"                                #X8X7X7Xy.w.w.w.p.$.} O.+.    c.P   *XwX9XwX5X).).)._.!.b.n.n.S                                 ",
"                                3 > , ] @.' 3 ' @.e O 4 w           B M M d.D.d.B a.M.v.k G f.                                  ",
"                                  w q w 3.3.#.5.$.. 8 8               v.E H !.Q.M.Q.Q.k D v.                                    ",
"                                    8 < o.7.5.5.9 0 4   }.6X].`.`.W :   v.D b.^.^.^.m.D v.                                      ",
"                                      4 < 2.6.2.7 3   {.iXiX9X9X9XE.* W   f.A M./.!.f.G                                         ",
"                                        3 o.7.o.3   6XiXiXaX6X6X9X}.. I I   G b.^.M.A                                           ",
"                                          9 $.9   {.iXiXpX9X{.1X6X{.( m ~ I   G Q.b.                                            ",
"                                            0     V._ ( _ ) ! ! ! ) ^ ; I U     G                                               ",
"                                                    . . # ` W ; U / X X m ;                                                     ",
"                                                    W W : ( E.) E.) X U #                                                       ",
"                                    S.uXpX%X(.(.N.A k   b * E.`.'.m m X   0XiXXX.X X*.' 0                                       ",
"                                  m.uXiXuX(.%X&XS.# F h   % ! `./ b .   0XiXpX X X Xq.O ] 5                                     ",
"                                W.iXiXiX5X(.&X&X(.A x g.  ; b E.W X   yXiXiXqX.X X+X.X} , { 7                                   ",
"                                *X9X6X2X~.A.W.A.~.C.A F F     ! b   |.7X6X7XoX8.8.8.q.%.' ] ] +                                 ",
"                                % . # M g.C g N b.v # x n           O @ @ 3 [ ' , 3 [ 6 X 1 1                                   ",
"                                  n m n S.C.g.Z.C.. x x               q q q #.X.{ ..%.@ 2 1                                     ",
"                                    x & H F.F.F.H x C   }.6X9.0.9.s i   5 2 7 %.%.&. .> 5                                       ",
"                                      x & C.~.C.l j   OXiXiX@Xi.@X,.u s   3 + | &.%.3 1                                         ",
"                                        & H F.H h   #XiXiXqXr.y.y.e.X p i   < 7 &.| O                                           ",
"                                          S Z.J   OXiXpXpX#Xr.r.r.r.;.i R p   1 ..6                                             ",
"                                            h     <.` ^ <.;.Q d Q ;.f = p T     1                                               ",
"                                                    o . r =.a i a =.X $ u =                                                     ",
"                                                    Y Y ; ;.>.;.>.-.$ i t                                                       ",
"                                                      t t = :.,.>.u u y                                                         ",
"                                                        y - s ,.=.- y                                                           ",
"                                                          = u :.p =                                                             ",
"                                                            t s y                                                               ",
"                                                                                                                                ",
"                                                                                                                                ",
"                                                                                                                                ",
"                                                                                                                                ",
"                                                                                                                                ",
"                                                                                                                                ",
"                                                                                                                                ",
"                                                                                                                                ",
"                                                                                                                                "
};
